<svg width="60" height="54" viewBox="0 0 60 54" fill="none" xmlns="http://www.w3.org/2000/svg">
<path d="M30 1.5C30.181 1.5 30.3481 1.59796 30.4365 1.75586L58.4365 51.7559C58.5231 51.9106 58.5213 52.0999 58.4316 52.2529C58.3419 52.406 58.1775 52.5 58 52.5H2C1.82254 52.5 1.6581 52.406 1.56836 52.2529C1.4787 52.0999 1.47691 51.9106 1.56348 51.7559L29.5635 1.75586C29.6519 1.59796 29.819 1.5 30 1.5Z" fill="#FFFFFF" stroke="#848687" stroke-width="3" stroke-linejoin="round"/>
<path d="M28.5567 36.6592C28.8955 33.6772 31.4565 33.9729 31.4893 36.71C31.5471 37.8033 31.6314 39.0989 30.0528 38.0596C28.9404 38.903 28.2186 38.3356 28.5567 36.6592Z" fill="#848687"/>
<path d="M32.6524 31.9004C33.8069 31.8183 34.8699 32.311 34.9522 33.2686C35.0342 34.2261 34.3026 35.6102 33.2578 35.5928C32.2129 35.5753 31.3488 34.3316 31.0869 33.374C30.8335 32.447 31.61 31.974 32.6524 31.9004Z" fill="#848687"/>
<path d="M27.0176 31.9141C28.0599 31.9878 29.1254 32.3348 28.8721 33.2617C28.6103 34.2193 27.8212 35.5253 26.7764 35.543C25.7315 35.5604 24.949 34.3013 25.0313 33.3438C25.1137 32.3864 25.8631 31.8318 27.0176 31.9141Z" fill="#848687"/>
<path fill-rule="evenodd" clip-rule="evenodd" d="M29.9336 22.4824C32.2097 22.4873 34.2794 23.4606 35.4463 24.4453C36.3076 25.1723 36.9803 26.2386 37.416 27.3135C37.8504 28.3849 38.0709 29.5177 37.9795 30.3955C37.8904 31.2509 37.6276 31.8949 37.3535 32.4209C37.2196 32.6779 37.0781 32.9152 36.9629 33.1172C36.8799 33.2628 36.8117 33.3937 36.7549 33.5156C36.9062 34.2492 36.9951 34.7887 36.9824 35.2627C36.9642 35.9371 36.7459 36.4623 36.3408 37.2012C36.209 37.4416 36.0704 37.597 35.9483 37.7188C35.8175 37.849 35.7616 37.8927 35.7022 37.9746C35.669 38.0204 35.6311 38.0837 35.5977 38.1914C35.6075 38.1873 35.618 38.1833 35.6289 38.1787C35.7223 38.1393 35.858 38.0816 36.0254 38.0107C36.3605 37.8689 36.825 37.6717 37.3399 37.4512C38.371 37.0094 39.6018 36.4752 40.4141 36.0996L40.5176 36.0361C40.5616 36.0051 40.6161 35.963 40.6836 35.9092C40.8035 35.8137 40.9607 35.6835 41.1153 35.5732C41.2691 35.4636 41.458 35.3461 41.6621 35.2852C41.8771 35.2212 42.1397 35.2127 42.3867 35.3682C42.7015 35.5665 42.8152 35.867 42.8604 36.1426C42.9001 36.3855 42.8972 36.7074 42.9102 36.9492C42.9209 37.1473 42.9856 37.2843 43.0772 37.4639C43.1652 37.6365 43.3078 37.8951 43.2949 38.2383C43.2903 38.3596 43.2724 38.4938 43.2168 38.6143C43.1531 38.7523 43.0391 38.871 42.8731 38.9219C42.7318 38.9651 42.5988 38.9438 42.5156 38.9248C42.4279 38.9047 42.3377 38.8725 42.2637 38.8447C41.942 38.724 41.6401 38.5993 41.2774 38.6875C40.3982 38.9012 38.959 39.4516 37.7178 39.96C37.1023 40.2121 36.543 40.4505 36.1377 40.626C35.9352 40.7137 35.7705 40.786 35.6572 40.8359C35.6009 40.8608 35.557 40.8804 35.5274 40.8936C35.5126 40.9001 35.5007 40.9049 35.4932 40.9082L35.4834 40.9131L35.2412 41.0205C35.1392 41.3802 35.0129 41.7229 34.874 42.0439L34.9922 42.0947C34.9928 42.0949 34.9942 42.0963 34.9951 42.0967C34.9971 42.0975 35.0001 42.099 35.0039 42.1006C35.0118 42.104 35.0239 42.1087 35.0391 42.1152C35.0696 42.1284 35.1141 42.1483 35.1709 42.1729C35.2849 42.222 35.448 42.2925 35.6436 42.377C36.035 42.546 36.5584 42.7715 37.084 42.999C37.6095 43.2265 38.1383 43.4562 38.541 43.6318C38.7423 43.7196 38.9132 43.7942 39.0362 43.8486C39.0973 43.8757 39.1478 43.8983 39.1846 43.915C39.2062 43.9248 39.2563 43.9471 39.2862 43.9648C39.5867 44.1434 39.9117 44.1488 40.2725 44.1221C40.4347 44.11 40.6437 44.0876 40.8174 44.0928C40.9725 44.0974 41.1785 44.1232 41.3574 44.251L41.4317 44.3125L41.4951 44.3789C41.5541 44.4494 41.5998 44.5318 41.626 44.625C41.6601 44.7471 41.6542 44.8639 41.6328 44.9619C41.5935 45.1418 41.4919 45.306 41.416 45.4209C41.3218 45.5636 41.2545 45.6502 41.1807 45.7715C41.1134 45.8821 41.0798 45.9624 41.0694 46.0215C41.0399 46.1875 41.032 46.3493 41.0303 46.5078C41.0288 46.6499 41.034 46.8355 41.0244 46.9756C41.0149 47.1141 40.9879 47.3233 40.8516 47.4941C40.6936 47.6918 40.4657 47.7521 40.252 47.752C39.8296 47.7516 39.5498 47.4855 39.3184 47.2852C39.0641 47.065 38.729 46.7746 38.125 46.4541C37.3568 46.0465 36.2551 45.5056 35.3418 45.0645C34.8861 44.8443 34.4781 44.6493 34.1846 44.5098C34.038 44.4401 33.9194 44.3842 33.8379 44.3457C33.7974 44.3266 33.7655 44.3118 33.7442 44.3018C33.7339 44.2969 33.7261 44.2926 33.7207 44.29C33.7181 44.2888 33.7153 44.2878 33.7139 44.2871L33.7129 44.2861L33.5821 44.2246C32.4221 45.6963 30.8743 45.8032 29.9297 45.7861C29.875 45.7851 29.8229 45.7731 29.7754 45.7529C28.8313 45.5892 27.4823 45.1466 26.3731 44.2285L26.1201 44.3506L26.1182 44.3516C26.1169 44.3522 26.1147 44.3534 26.1123 44.3545L26 44.4082C25.9221 44.4455 25.8085 44.4999 25.668 44.5674C25.3867 44.7024 24.9952 44.8911 24.5547 45.1035C23.6733 45.5285 22.5966 46.0503 21.8115 46.4385C21.2123 46.7348 20.8958 47.0349 20.6602 47.2568C20.5519 47.3588 20.4126 47.4935 20.2608 47.5742C20.0685 47.6763 19.8569 47.6965 19.6319 47.6123C19.4237 47.5343 19.267 47.4004 19.1758 47.2129C19.0953 47.0468 19.0834 46.8715 19.0801 46.752C19.0724 46.4665 19.0912 46.3328 19.0186 46.1826C18.9658 46.0739 18.8961 45.9507 18.8135 45.7998C18.7351 45.6567 18.6477 45.493 18.5791 45.3301C18.5125 45.1717 18.4488 44.9815 18.4414 44.7891C18.4337 44.5831 18.4918 44.3477 18.6934 44.1699L18.7793 44.1055C18.9828 43.9757 19.2093 43.9833 19.3643 44.0049C19.5364 44.0289 19.7479 44.0915 19.8994 44.1299C20.2489 44.2184 20.5389 44.2524 20.8155 44.0986C20.8558 44.0764 21.1616 43.9341 21.5567 43.751C21.9682 43.5602 22.5094 43.3107 23.0469 43.0625C23.5843 42.8143 24.1192 42.5674 24.5196 42.3828C24.7196 42.2906 24.8864 42.2139 25.003 42.1602C25.0548 42.1363 25.0964 42.1157 25.127 42.1016C25.1104 42.0557 25.0933 42.01 25.0772 41.9639C24.9664 41.6464 24.8667 41.3174 24.7793 40.9932L24.4844 40.8691L24.4834 40.8682H24.4815C24.4797 40.8674 24.4771 40.8657 24.4737 40.8643C24.4666 40.8613 24.4553 40.8564 24.4414 40.8506C24.4135 40.8389 24.3722 40.8218 24.3194 40.7998C24.2128 40.7555 24.058 40.6917 23.8672 40.6133C23.4849 40.4561 22.9555 40.2409 22.3711 40.0098C21.1969 39.5453 19.8152 39.0224 18.9336 38.7666C18.5875 38.6662 18.2338 38.7991 17.8389 38.9453C17.7495 38.9784 17.6493 39.0153 17.5547 39.04C17.4658 39.0633 17.338 39.0879 17.2041 39.0674C17.045 39.0429 16.8922 38.9553 16.7979 38.792C16.7186 38.6543 16.7024 38.4985 16.7031 38.3701L16.71 38.2529C16.7371 37.9803 16.846 37.7242 16.9258 37.5283C17.0274 37.279 17.1082 37.073 17.1299 36.8525C17.1416 36.7334 17.141 36.626 17.1377 36.5225C17.1348 36.4304 17.1274 36.3036 17.1319 36.1982C17.1368 36.0837 17.1561 35.9409 17.2324 35.7998C17.3117 35.6537 17.432 35.5463 17.5733 35.4658C18.0486 35.1953 18.5076 35.4503 18.7666 35.6289C18.9085 35.7267 19.048 35.8427 19.1563 35.9297C19.2767 36.0265 19.3569 36.0851 19.4151 36.1152C20.1917 36.5167 21.4169 37.0013 22.4629 37.3896C22.9825 37.5826 23.4527 37.7501 23.793 37.8691C23.9291 37.9168 24.0446 37.9565 24.1338 37.9873C24.0879 37.9162 24.0449 37.8738 23.9424 37.7588C23.842 37.6461 23.7254 37.5037 23.5967 37.2793C23.478 37.0722 23.3761 36.8514 23.291 36.6201C23.2888 36.6182 23.2854 36.6172 23.2832 36.6152L23.2276 36.5527L23.1826 36.4883C23.177 36.4798 23.1671 36.4634 23.1572 36.4453C23.1527 36.437 23.1423 36.4185 23.1328 36.3945C23.1281 36.3824 23.1205 36.3599 23.1143 36.332C23.1092 36.3094 23.0975 36.2493 23.1094 36.1748C23.1133 36.1508 23.1217 36.123 23.1328 36.0938C22.9653 35.3701 22.9658 34.5513 23.1934 33.6582C23.1295 33.4945 23.0389 33.3217 22.9229 33.1182C22.8078 32.9162 22.6662 32.6788 22.5322 32.4219C22.2581 31.8958 21.9954 31.2511 21.9063 30.3955C21.815 29.5177 22.0365 28.3857 22.4707 27.3145C22.9065 26.2395 23.5781 25.1723 24.4395 24.4453C25.6032 23.4634 27.6642 22.4946 29.9326 22.4844L29.9336 22.4824ZM34.4668 43.7578C34.4866 43.7672 34.5073 43.7771 34.5283 43.7871C34.823 43.9271 35.2319 44.1227 35.6895 44.3438C36.6033 44.7852 37.7171 45.3326 38.5 45.748C39.012 46.0197 39.3588 46.2762 39.6143 46.4863L40.0205 46.8301C40.1321 46.9192 40.1807 46.941 40.2217 46.9473C40.2225 46.9394 40.2249 46.9304 40.2256 46.9209C40.2332 46.8098 40.2284 46.6933 40.2305 46.499C40.2324 46.3213 40.2418 46.1101 40.2822 45.8818C40.3185 45.6775 40.4124 45.4963 40.4981 45.3555C40.5773 45.2254 40.6902 45.0681 40.7481 44.9805C40.7707 44.9462 40.7867 44.9157 40.8008 44.8916C40.7986 44.8915 40.7963 44.8917 40.794 44.8916C40.6754 44.8881 40.5416 44.9043 40.3311 44.9199C39.9464 44.9484 39.4039 44.9656 38.877 44.6523C38.896 44.6636 38.9031 44.6656 38.8545 44.6436C38.821 44.6284 38.7733 44.6068 38.7129 44.5801C38.5919 44.5265 38.4226 44.4528 38.2217 44.3652C37.82 44.19 37.292 43.9609 36.7666 43.7334C36.2415 43.506 35.7185 43.2803 35.3272 43.1113C35.1969 43.0551 35.0808 43.0045 34.9844 42.9629L34.4668 43.7578ZM24.8545 43.1094C24.4542 43.2939 23.9191 43.54 23.3819 43.7881C22.8446 44.0362 22.3045 44.286 21.8936 44.4766C21.6881 44.5718 21.5148 44.6529 21.3906 44.7109C21.2682 44.7682 21.2108 44.7949 21.2041 44.7979C20.6394 45.112 20.0794 45.0019 19.7022 44.9062C19.4904 44.8526 19.3681 44.8128 19.2539 44.7969C19.2519 44.7966 19.25 44.7962 19.2481 44.7959C19.2563 44.8468 19.275 44.9209 19.3164 45.0195C19.3678 45.1415 19.4373 45.2747 19.5147 45.416C19.5878 45.5496 19.6733 45.7011 19.7373 45.833C19.9078 46.1845 19.8757 46.5734 19.8799 46.7305C19.8812 46.7774 19.8848 46.8102 19.8887 46.834C19.8902 46.843 19.8924 46.8499 19.8936 46.8545C19.895 46.8552 19.8966 46.8566 19.8985 46.8574C19.9348 46.8342 19.9919 46.7873 20.1114 46.6748C20.3649 46.436 20.7504 46.0701 21.4571 45.7207C22.2459 45.3307 23.3255 44.8078 24.2071 44.3828C24.6481 44.1702 25.0407 43.9818 25.3223 43.8467C25.3648 43.8263 25.4051 43.807 25.4424 43.7891L25.1319 42.9805C25.0495 43.0184 24.9565 43.0624 24.8545 43.1094ZM25.042 38.0156C25.1269 38.2944 25.1955 38.6677 25.2598 39.2061C25.3397 39.8755 25.557 40.8239 25.8594 41.6904C26.0103 42.1226 26.1798 42.5261 26.3584 42.8594C26.5407 43.1993 26.718 43.4372 26.8731 43.5674C27.8896 44.421 29.1725 44.8254 30.0264 44.9561C30.9075 44.9637 32.1025 44.8312 32.9951 43.6367C33.5847 42.8476 34.679 41.1239 34.6699 39.2578C34.6678 38.8345 34.6913 38.5036 34.7393 38.2363C34.7304 38.2519 34.72 38.268 34.711 38.2852C34.6152 38.4662 34.5333 38.6878 34.4658 38.9033C34.399 39.1168 34.3504 39.3107 34.3174 39.4404C34.3056 39.4868 34.286 39.5685 34.2656 39.6191C34.2618 39.6287 34.2535 39.6448 34.2432 39.6641C34.3149 43.4219 25.8665 44.0305 25.8721 39.3828C25.8465 39.3327 25.8184 39.2777 25.7901 39.2207C25.7437 39.1274 25.6924 39.0243 25.6367 38.917C25.5243 38.7004 25.3984 38.475 25.2676 38.2871C25.1813 38.1632 25.1042 38.0748 25.042 38.0156ZM41.8906 36.0518C41.8143 36.0745 41.7112 36.1304 41.5791 36.2246C41.4478 36.3183 41.3229 36.4234 41.1826 36.5352C41.0582 36.6343 40.9021 36.7558 40.75 36.8262C39.9261 37.2072 38.6852 37.7449 37.6543 38.1865C37.1382 38.4076 36.6728 38.6059 36.3369 38.748C36.2016 38.8053 36.0864 38.8524 35.9981 38.8896L35.834 39.8848C36.2416 39.7084 36.8006 39.4714 37.4151 39.2197C38.6492 38.7143 40.1423 38.1402 41.0889 37.9102C41.6789 37.7668 42.1815 37.9565 42.4727 38.0684C42.4528 38.0077 42.419 37.9345 42.3643 37.8271C42.2675 37.6373 42.1318 37.3711 42.1114 36.9922C42.0934 36.6574 42.102 36.4602 42.0713 36.2725C42.0459 36.1173 42.0059 36.0739 41.96 36.0449C41.9563 36.0426 41.9552 36.0423 41.9512 36.042C41.9443 36.0415 41.9254 36.0414 41.8906 36.0518ZM29.9424 23.2832C27.8788 23.2907 25.9932 24.1816 24.9561 25.0566C24.2222 25.676 23.6151 26.6201 23.2119 27.6143C22.8074 28.6121 22.629 29.6082 22.7022 30.3125C22.7778 31.0389 22.9981 31.5851 23.2412 32.0518C23.3434 32.2478 23.446 32.4249 23.5489 32.6035C23.6078 32.4339 23.6359 32.3066 23.6465 32.2031C23.6598 32.0728 23.6479 31.9617 23.6182 31.8291C23.5594 31.5671 23.3944 31.1324 23.333 30.4385C23.2628 29.6428 23.2365 29.0841 23.2813 28.627C23.3279 28.1512 23.4507 27.7945 23.6543 27.3965C23.7585 27.1929 24.0083 27.1119 24.2119 27.2158C24.4154 27.3201 24.4966 27.5699 24.3926 27.7734C24.2265 28.098 24.1401 28.3546 24.1055 28.708C24.0691 29.0804 24.0889 29.5703 24.1592 30.3662C24.2145 30.9914 24.3393 31.2578 24.4268 31.6475C24.4701 31.8404 24.4954 32.0444 24.4707 32.2871C24.4465 32.5247 24.3762 32.7813 24.253 33.0859C23.7682 34.2844 23.7528 35.3076 24 36.1309C24.0497 36.181 24.1072 36.2405 24.1748 36.3057C24.4702 36.5902 24.898 36.9657 25.3467 37.2139C25.5921 37.3496 25.7937 37.593 25.9473 37.8135C26.1087 38.0452 26.254 38.3077 26.3721 38.5352C26.4315 38.6496 26.4859 38.7582 26.5323 38.8516C26.566 38.9196 26.5957 38.9775 26.6201 39.0254C26.6998 39.0824 26.7596 39.1659 26.7832 39.2646L26.7881 39.3086C29.1315 40.21 31.2813 39.9938 33.5606 39.0557C33.5904 38.9415 33.6287 38.8027 33.6748 38.6553C33.7491 38.418 33.8488 38.1426 33.9785 37.8975C34.1017 37.6647 34.2844 37.3975 34.5508 37.25C34.9986 37.0024 35.3995 36.6453 35.6651 36.3818C35.7959 36.252 35.8889 36.1491 35.9395 36.0947C35.9494 36.0841 35.9637 36.0685 35.9766 36.0557C36.0939 35.7603 36.1468 35.5163 36.1543 35.2412C36.1681 34.7294 36.0347 34.0931 35.7696 32.8652C35.6435 32.2814 35.5896 31.9848 35.6162 31.6631C35.6289 31.51 35.6594 31.3569 35.6944 31.1826C35.7303 31.0035 35.7757 30.7796 35.8281 30.4609C35.9483 29.7302 35.9944 29.2573 35.9619 28.8799C35.931 28.5222 35.8272 28.233 35.6074 27.8789C35.4869 27.6846 35.547 27.4293 35.7412 27.3086C35.9113 27.2031 36.1284 27.235 36.2608 27.375L36.3115 27.4424L36.4092 27.6074C36.6243 27.9907 36.7485 28.362 36.7871 28.8076C36.8294 29.2974 36.7664 29.8606 36.6455 30.5957C36.5906 30.93 36.5428 31.1665 36.5069 31.3457C36.47 31.5293 36.4495 31.6345 36.4414 31.7314C36.4304 31.8654 36.4401 31.9976 36.501 32.3105C36.5482 32.2266 36.5976 32.1418 36.6446 32.0518C36.8877 31.5851 37.1079 31.039 37.1836 30.3125C37.2569 29.6082 37.0784 28.6122 36.6739 27.6143C36.2708 26.62 35.6636 25.6761 34.9297 25.0566C33.8925 24.1814 32.0065 23.2905 29.9424 23.2832ZM17.9688 36.1611C17.9255 36.1859 17.9289 36.1944 17.9365 36.1807C17.9413 36.1716 17.934 36.1779 17.9317 36.2334C17.9289 36.2987 17.9334 36.367 17.9375 36.4971C17.9413 36.6161 17.9422 36.7617 17.9258 36.9297C17.891 37.2841 17.7617 37.5953 17.666 37.8301C17.6017 37.9881 17.5575 38.1072 17.5313 38.2051C17.5406 38.2017 17.5507 38.199 17.5606 38.1953C17.8891 38.0736 18.5092 37.8103 19.1563 37.998C20.0792 38.2658 21.4945 38.8022 22.666 39.2656C23.2166 39.4834 23.7176 39.687 24.0947 39.8418L23.8682 38.7412C23.7786 38.7104 23.6639 38.6711 23.5293 38.624C23.1855 38.5037 22.7093 38.3348 22.1836 38.1396C21.1386 37.7516 19.8716 37.2525 19.0469 36.8262C18.9066 36.7536 18.7673 36.6427 18.6553 36.5527C18.531 36.4528 18.4232 36.3634 18.3125 36.2871C18.0665 36.1175 17.9941 36.1467 17.9688 36.1611ZM34.2862 39.4453C34.2861 39.4424 34.2862 39.4343 34.2852 39.4238C34.2851 39.4228 34.2845 39.4206 34.2842 39.4189C34.2845 39.4275 34.2864 39.4366 34.2862 39.4453Z" fill="#848687"/>
</svg>
