<svg width="20" height="20" viewBox="0 0 20 20" fill="none" xmlns="http://www.w3.org/2000/svg">
	<path fill-rule="evenodd" clip-rule="evenodd" d="M7.64195 7.22028H11.0464V8.91611C11.5369 7.94078 12.7945 7.06445 14.6838 7.06445C18.3055 7.06445 19.1654 9.00595 19.1654 12.5681V19.1654H15.4987V13.3794C15.4987 11.3508 15.0083 10.2068 13.7598 10.2068C12.0282 10.2068 11.3086 11.4397 11.3086 13.3784V19.1654H7.64195V7.22028ZM1.35453 19.0095H5.0212V7.06445H1.35453V19.0095ZM5.54645 3.16953C5.54658 3.47687 5.48563 3.78116 5.36714 4.06474C5.24864 4.34831 5.07496 4.6055 4.8562 4.82137C4.4129 5.26194 3.81286 5.50855 3.18786 5.50703C2.56397 5.50661 1.96532 5.26063 1.52136 4.82228C1.30339 4.60568 1.1303 4.3482 1.01201 4.06459C0.893724 3.78098 0.832562 3.47682 0.832031 3.16953C0.832031 2.54895 1.07953 1.95495 1.52228 1.51678C1.96584 1.07784 2.56475 0.831757 3.18878 0.832031C3.81395 0.832031 4.41345 1.07861 4.8562 1.51678C5.29803 1.95495 5.54645 2.54895 5.54645 3.16953Z" fill="white" />
</svg>