<svg id="Layer_1" data-name="Layer 1" xmlns="http://www.w3.org/2000/svg" viewBox="0 0 25 15.7"><title>cardboard</title><path d="M12.53,5h10.7A1.59,1.59,0,0,1,25,6.74c0,4.08,0,8.15,0,12.23a1.63,1.63,0,0,1-1.7,1.72c-1.94-.05-3.88,0-5.82,0A1.43,1.43,0,0,1,16,19.74q-0.84-2-1.64-3.94a2.05,2.05,0,0,0-1.87-1.46,2,2,0,0,0-1.89,1.37c-0.51,1.24-1,2.47-1.53,3.71a1.61,1.61,0,0,1-1.86,1.27c-1.87,0-3.74,0-5.61,0A1.59,1.59,0,0,1,0,19.07c0-4.13,0-8.26,0-12.39A1.59,1.59,0,0,1,1.73,5h10.8ZM6.81,15.6a2.78,2.78,0,0,0,2.81-2.69,2.83,2.83,0,0,0-2.68-2.84A2.88,2.88,0,0,0,4,12.84,2.83,2.83,0,0,0,6.81,15.6Zm11.37,0A2.83,2.83,0,0,0,21,12.82a2.79,2.79,0,0,0-5.58.07A2.81,2.81,0,0,0,18.17,15.61Z" transform="translate(0 -4.99)"/></svg>