<?xml version="1.0" encoding="utf-8"?>
<!-- Generator: Adobe Illustrator 19.2.1, SVG Export Plug-In . SVG Version: 6.00 Build 0)  -->
<svg version="1.1" id="Layer_1" xmlns="http://www.w3.org/2000/svg" xmlns:xlink="http://www.w3.org/1999/xlink" x="0px" y="0px"
	 viewBox="0 0 25 25" style="enable-background:new 0 0 25 25;" xml:space="preserve">
<path d="M12.5,7.2c2.6,0,5.1,0,7.7,0c0.8,0,1.3,0.4,1.3,1.3c0,2.9,0,5.9,0,8.8c0,0.6-0.4,1.3-1.2,1.2c-1.4,0-2.8,0-4.2,0
	c-0.5,0-0.8-0.2-1-0.7c-0.4-0.9-0.8-1.9-1.2-2.8c-0.3-0.6-0.8-1.1-1.3-1.1c-0.6,0-1.1,0.3-1.4,1c-0.4,0.9-0.7,1.8-1.1,2.7
	c-0.3,0.7-0.6,0.9-1.3,0.9c-1.3,0-2.7,0-4,0c-0.8,0-1.2-0.6-1.2-1.2c0-3,0-5.9,0-8.9c0-0.8,0.5-1.2,1.2-1.2
	C7.3,7.2,9.9,7.2,12.5,7.2z M8.4,14.8c1.1,0,2-0.9,2-1.9c0-1.1-0.9-2-1.9-2c-1.1,0-2.1,0.9-2.1,2C6.4,13.9,7.3,14.8,8.4,14.8z
	 M16.6,14.8c1.1,0,2-0.9,2-2c0-1.1-1-2-2.1-2c-1.1,0-2,1-2,2C14.6,14,15.5,14.9,16.6,14.8z"/>
</svg>
