<svg id="Layer_1" data-name="Layer 1" xmlns="http://www.w3.org/2000/svg" viewBox="0 0 18 11.31"><title>cardboard</title><path d="M12.52,7.19h7.7a1.14,1.14,0,0,1,1.27,1.26c0,2.94,0,5.87,0,8.81a1.17,1.17,0,0,1-1.22,1.24c-1.4,0-2.8,0-4.19,0a1,1,0,0,1-1-.68q-0.6-1.41-1.18-2.84a1.48,1.48,0,0,0-1.35-1.05,1.42,1.42,0,0,0-1.36,1l-1.1,2.67a1.16,1.16,0,0,1-1.34.92c-1.35,0-2.69,0-4,0A1.14,1.14,0,0,1,3.5,17.33c0-3,0-5.95,0-8.92A1.14,1.14,0,0,1,4.74,7.19h7.78ZM8.4,14.83a2,2,0,0,0,2-1.94,2,2,0,0,0-1.93-2,2.07,2.07,0,0,0-2.08,2A2,2,0,0,0,8.4,14.83Zm8.18,0a2,2,0,0,0,2-2,2,2,0,0,0-4,.05A2,2,0,0,0,16.58,14.83Z" transform="translate(-3.5 -7.19)"/></svg>