<svg id="Layer_1" data-name="Layer 1" xmlns="http://www.w3.org/2000/svg" viewBox="0 0 236.02 148.24"><title>cardboard</title><path d="M421.34,224.35h101c10.72,0,16.68,5.88,16.69,16.55,0,38.49-.1,77,0.09,115.46,0,8.26-5.55,16.49-16,16.21-18.31-.49-36.65-0.22-55-0.09-6.67,0-11.08-3.05-13.58-8.92Q446.6,345,439,326.33c-3.36-8.32-10-14.18-17.68-13.79-7.38.37-13.85,3.29-17.81,12.89-4.8,11.66-9.65,23.3-14.41,35-4,9.75-7.24,12-17.57,12-17.66,0-35.33-.32-53,0.13-10.16.26-15.47-8.17-15.48-15.23,0-39-.08-78,0-117,0-10,6.33-16,16.28-16h102Zm-54,100.21a26.28,26.28,0,0,0,26.52-25.43c0.44-13.88-11.46-26.48-25.35-26.84-14.3-.37-27,11.83-27.22,26.2C341,312.18,353.15,324.29,367.33,324.57Zm107.3,0c14.53-.28,26.6-12.37,26.32-26.35S488,272.06,474,272.29c-13.78.23-26,12.9-25.69,26.61C448.59,313,460.7,324.85,474.62,324.58Z" transform="translate(-303.07 -224.35)"/></svg>