<svg id="Layer_1" data-name="Layer 1" xmlns="http://www.w3.org/2000/svg" viewBox="0 0 488.27 282.58"><title>helicopter</title><path d="M312.35,349.54c-8.13,0-14.75-.51-21.28.09-34.73,3.16-61.64-11.71-83.86-36.64a458.38,458.38,0,0,1-28.85-36.24c-8-11-17.89-17.3-31.31-19.64-26.93-4.68-53.7-10.21-80.55-15.37-3.48-.67-7-0.94-10.48-1.77-15.63-3.76-23.71-20.55-16.42-34.84,1.82-3.57,1.33-5.93-.37-9.09-8.59-16-17-32.08-25.43-48.16-3.57-6.81-2-9.51,5.73-9.62,9-.13,18-0.74,26.92.26A24.21,24.21,0,0,1,60,144.84c14,14,27.3,28.81,41.07,43.1a10.72,10.72,0,0,0,7,2.87q59.86,0.27,119.72,0c2.29,0,4.75-2.21,6.78-3.83,1.21-1,1.83-2.76,2.53-4.27,5.35-11.52,13.22-18.62,27-15.91,2.2,0.43,4.56.06,7.41,0.06V155.74h-6.76q-72.09,0-144.17,0c-12,0-19.43-9-16.28-19.49,2-6.74,7.58-10.56,15.91-10.58q40.43-.08,80.86,0c21.94,0,43.88,0,65.82-.06,1.82,0,4.43-.41,5.33-1.63,8.15-11,15.07-10.67,21,1.69h102c16.72,0,33.43,0,50.15,0,9.9,0,16.43,6,16.43,15s-6.4,15.09-16.33,15.1q-72.4.1-144.8,0h-7.71V167c4.55,0,9.1.38,13.56-.09,7.13-.74,12,2.58,16,7.84a11.7,11.7,0,0,1,2.17,3.05c3.75,11.55,12.53,13.1,23.45,14.62,52,7.23,95.16,31,127.83,72.59,7.6,9.67,12.9,20.71,11.59,33.54-1.28,12.52-8.66,21.47-18.54,28.51-15.65,11.15-33.47,17.26-52.21,19.73-9.5,1.25-15.68,5.11-20.2,13-1.5,2.62-3.51,5-5.83,8.16,2.69,0.21,4.29.43,5.88,0.43,16.51,0,33,.47,49.51-0.23,6-.25,12.25-2.47,17.57-5.31,3.08-1.64,5.46-6,6.54-9.68,2.31-7.75,8.65-12.83,16.71-12A14.83,14.83,0,0,1,500.27,356a33.35,33.35,0,0,1-9.42,23.25c-11.69,12.6-26.34,19.16-43.42,19.19q-121,.25-242,0.05c-9.65,0-15.92-4.48-17.32-12.07-1.87-10.15,5-18,16.23-18,29-.1,58.09-0.16,87.13.12,5.21,0.05,8.59-1.38,11.27-5.8C305.32,358.58,308.51,354.79,312.35,349.54ZM459.56,290.1c-0.33-8.93-4.57-15.35-9.57-21.28-21-24.89-47.83-40.59-78.91-49.1-9.88-2.7-20.24-3.65-31.23-5.55,0,17.27-.1,32.87.15,48.46,0,1.63,1.78,3.62,3.26,4.78,8.35,6.58,16.72,13.17,25.41,19.29a18,18,0,0,0,9.56,3.25c25,0.26,50.07.15,75.1,0.15h6.23Zm-80.35,59.46c-14.37,0-27.21,0-40.06.05a3.78,3.78,0,0,0-2.68,1.18c-4.07,5.42-8,10.94-12.79,17.56,14.14,0,27,.06,39.79-0.1,1.18,0,2.65-1.18,3.46-2.23C370.77,361.11,374.4,356.06,379.21,349.56ZM75.93,214.91a10.28,10.28,0,0,0-10.59-10.1,10.33,10.33,0,0,0,.44,20.65A10.3,10.3,0,0,0,75.93,214.91Z" transform="translate(-12 -115.98)"/></svg>