<svg id="Layer_1" data-name="Layer 1" xmlns="http://www.w3.org/2000/svg" viewBox="0 0 25 14.47"><title>helicopter</title><path d="M15.38,16.78c-0.42,0-.76,0-1.09,0A4.94,4.94,0,0,1,10,14.91a23.47,23.47,0,0,1-1.48-1.86,2.38,2.38,0,0,0-1.6-1c-1.38-.24-2.75-0.52-4.12-0.79-0.18,0-.36,0-0.54-0.09a1.25,1.25,0,0,1-.84-1.78,0.43,0.43,0,0,0,0-.47C1,8.1.52,7.28,0.09,6.45-0.09,6.11,0,6,.39,6A11,11,0,0,1,1.76,6a1.24,1.24,0,0,1,.69.32C3.17,7,3.85,7.77,4.56,8.5a0.55,0.55,0,0,0,.36.15q3.06,0,6.13,0a0.69,0.69,0,0,0,.35-0.2,0.6,0.6,0,0,0,.13-0.22,1.17,1.17,0,0,1,1.38-.81,2.13,2.13,0,0,0,.38,0V6.86H5.56a0.77,0.77,0,1,1,0-1.54H13a0.38,0.38,0,0,0,.27-0.08c0.42-.57.77-0.55,1.07,0.09h7.79a0.77,0.77,0,1,1,0,1.54H14.38V7.43a6.76,6.76,0,0,0,.69,0,0.87,0.87,0,0,1,.82.4A0.6,0.6,0,0,1,16,8a1.18,1.18,0,0,0,1.2.75,9.74,9.74,0,0,1,6.55,3.72,2.36,2.36,0,0,1,.59,1.72,2,2,0,0,1-.95,1.46,5.86,5.86,0,0,1-2.67,1,1.27,1.27,0,0,0-1,.66c-0.08.13-.18,0.25-0.3,0.42l0.3,0c0.85,0,1.69,0,2.53,0a2.19,2.19,0,0,0,.9-0.27,0.87,0.87,0,0,0,.33-0.5,0.8,0.8,0,0,1,.86-0.62,0.76,0.76,0,0,1,.68.76,1.71,1.71,0,0,1-.48,1.19,2.94,2.94,0,0,1-2.22,1H9.91A0.8,0.8,0,0,1,9,18.67a0.76,0.76,0,0,1,.83-0.92c1.49,0,3,0,4.46,0a0.58,0.58,0,0,0,.58-0.3C15,17.24,15.18,17,15.38,16.78Zm7.54-3a1.74,1.74,0,0,0-.49-1.09,7.84,7.84,0,0,0-4-2.51c-0.51-.14-1-0.19-1.6-0.28,0,0.88,0,1.68,0,2.48a0.4,0.4,0,0,0,.17.24c0.43,0.34.86,0.67,1.3,1a0.92,0.92,0,0,0,.49.17c1.28,0,2.56,0,3.85,0h0.32Zm-4.11,3H16.75a0.19,0.19,0,0,0-.14.06l-0.65.9h2a0.28,0.28,0,0,0,.18-0.11C18.37,17.37,18.56,17.11,18.8,16.78ZM3.27,9.89a0.53,0.53,0,0,0-.54-0.52,0.53,0.53,0,0,0,0,1.06A0.53,0.53,0,0,0,3.27,9.89Z" transform="translate(0 -4.82)"/></svg>