<svg id="Layer_1" data-name="Layer 1" xmlns="http://www.w3.org/2000/svg" viewBox="0 0 18 10.42">
  <title>helicopter</title>
  <path d="M13.57,15.46c-0.3,0-.54,0-0.78,0A3.56,3.56,0,0,1,9.7,14.11a16.9,16.9,0,0,1-1.06-1.34A1.71,1.71,0,0,0,7.48,12c-1-.17-2-0.38-3-0.57l-0.39-.07a0.9,0.9,0,0,1-.61-1.28,0.31,0.31,0,0,0,0-.34C3.19,9.21,2.88,8.61,2.57,8c-0.13-.25-0.07-0.35.21-0.35a7.91,7.91,0,0,1,1,0,0.89,0.89,0,0,1,.5.23C4.79,8.43,5.28,9,5.78,9.5A0.4,0.4,0,0,0,6,9.6h4.41a0.49,0.49,0,0,0,.25-0.14A0.43,0.43,0,0,0,10.8,9.3a0.84,0.84,0,0,1,1-.59,1.53,1.53,0,0,0,.27,0V8.31H6.5a0.56,0.56,0,1,1,0-1.11h5.41a0.28,0.28,0,0,0,.2-0.06c0.3-.41.56-0.39,0.77,0.06h5.61a0.56,0.56,0,1,1,0,1.11H12.86V8.73a4.87,4.87,0,0,0,.5,0,0.62,0.62,0,0,1,.59.29,0.43,0.43,0,0,1,.08.11,0.85,0.85,0,0,0,.86.54,7,7,0,0,1,4.71,2.68A1.7,1.7,0,0,1,20,13.58a1.46,1.46,0,0,1-.68,1.05,4.22,4.22,0,0,1-1.92.73,0.91,0.91,0,0,0-.74.48c-0.06.1-.13,0.18-0.21,0.3l0.22,0c0.61,0,1.22,0,1.83,0a1.57,1.57,0,0,0,.65-0.2,0.62,0.62,0,0,0,.24-0.36A0.58,0.58,0,0,1,20,15.15a0.55,0.55,0,0,1,.49.55,1.23,1.23,0,0,1-.35.86,2.12,2.12,0,0,1-1.6.71H9.63A0.57,0.57,0,0,1,9,16.82a0.55,0.55,0,0,1,.6-0.66H12.8a0.42,0.42,0,0,0,.42-0.21C13.31,15.79,13.43,15.65,13.57,15.46ZM19,13.26a1.26,1.26,0,0,0-.35-0.78,5.65,5.65,0,0,0-2.91-1.81c-0.36-.1-0.75-0.13-1.15-0.2,0,0.64,0,1.21,0,1.79a0.29,0.29,0,0,0,.12.18c0.31,0.24.62,0.49,0.94,0.71a0.66,0.66,0,0,0,.35.12h3Zm-3,2.19H14.56a0.14,0.14,0,0,0-.1,0L14,16.15h1.47a0.2,0.2,0,0,0,.13-0.08Zm-11.18-5a0.38,0.38,0,0,0-.39-0.37,0.38,0.38,0,0,0,0,.76A0.38,0.38,0,0,0,4.86,10.49Z" transform="translate(-2.5 -6.85)"/>
</svg>
