<svg id="Default" xmlns="http://www.w3.org/2000/svg" viewBox="0 0 23.16 23.17"><defs><style>.cls-1{fill:none;stroke:#000;stroke-linejoin:round;stroke-width:1.5px;}</style></defs><title>orbit</title><path class="cls-1" d="M6.8,9.06A9.74,9.74,0,0,0,2.5,11c-1.34,1.28-.85,2.6.61,3.6,2.4,1.64,6.62,2.12,9.45,2.12s7-.49,9.44-2.13c1.46-1,1.93-2.32.58-3.6a9.27,9.27,0,0,0-1.76-1.24" transform="translate(-0.96 -0.94)"/><polygon points="21.33 7.12 16.87 7.6 19.52 11.22 21.33 7.12"/><path class="cls-1" d="M15.62,4.78a9.22,9.22,0,0,0-1.77-2.52c-1.41-1.18-2.73-.35-3.64,1.07-1.58,2.47-2.06,6.52-2,9.37s0.53,6.95,2.22,9.3c1,1.43,2.38,1.91,3.69.6a9.4,9.4,0,0,0,2-4.23" transform="translate(-0.96 -0.94)"/><polygon points="16.39 2.35 15.91 6.81 12.29 4.17 16.39 2.35"/></svg>