<svg id="Layer_1" data-name="Layer 1" xmlns="http://www.w3.org/2000/svg" viewBox="0 0 23.94 22.46"><title>turntable</title><path d="M8.22,15.09l1.79,0,2.06,0c0.77,0,1.62,0,2.56,0a19,19,0,0,0,6.11-1.2A4.78,4.78,0,0,0,22,13.18a1.46,1.46,0,0,0,.32-0.39,0.39,0.39,0,0,0,0-.25,2,2,0,0,0-.78-0.88,8.17,8.17,0,0,0-1.54-.79,23.59,23.59,0,0,0-7.22-1.33A28.77,28.77,0,0,0,6.36,10a10.15,10.15,0,0,0-4.14,1.57,2,2,0,0,0-.67.81,0.83,0.83,0,0,0-.06.31H0.57A1.63,1.63,0,0,1,.66,12a2.9,2.9,0,0,1,.91-1.27,11.12,11.12,0,0,1,4.52-2A30.1,30.1,0,0,1,12.88,8a25.19,25.19,0,0,1,7.84,1.09,10,10,0,0,1,2,.9,3.77,3.77,0,0,1,1.7,2,2.43,2.43,0,0,1-.08,1.62,3.45,3.45,0,0,1-.78,1.14A6.86,6.86,0,0,1,21.7,16a21.16,21.16,0,0,1-6.86,1.72c-1,.11-2,0.15-2.77.17l-2.06,0L8.22,18V15.09Z" transform="translate(-0.56 -1.25)"/><polygon points="8.27 19.84 8.27 10.72 3.71 15.28 8.27 19.84"/><rect x="10.63" y="6.52" width="3.05" height="2.17" style="fill:#fff"/><line x1="12.15" y1="2.63" x2="12.15" y2="12.98" style="fill:none;stroke:#000;stroke-miterlimit:10"/><polygon points="15.19 3.04 9.12 3.04 12.15 0 15.19 3.04"/><line x1="12.15" y1="17.65" x2="12.15" y2="22.46" style="fill:none;stroke:#000;stroke-miterlimit:10"/></svg>