<svg id="Layer_1" data-name="Layer 1" xmlns="http://www.w3.org/2000/svg" viewBox="0 0 24.95 25"><title>turntable</title><path d="M7.85,22.37a10.93,10.93,0,0,1-6.23-8.83H0.05A12.51,12.51,0,0,0,12.53,25l0.69,0-4-4Zm0.93-6.79a1.75,1.75,0,0,1-.54-0.08,1.12,1.12,0,0,1-.42-0.25,1,1,0,0,1-.27-0.39,1.24,1.24,0,0,1-.09-0.49H6.1a2.13,2.13,0,0,0,.22,1,2.3,2.3,0,0,0,.58.72,2.64,2.64,0,0,0,.86.43,3.16,3.16,0,0,0,1,.16,3.53,3.53,0,0,0,1.08-.16,2.55,2.55,0,0,0,.87-0.46,2.06,2.06,0,0,0,.57-0.75,2.43,2.43,0,0,0,.21-1,2.18,2.18,0,0,0-.07-0.58,1.74,1.74,0,0,0-.24-0.53,1.87,1.87,0,0,0-.42-0.45,2.15,2.15,0,0,0-.64-0.32,2.19,2.19,0,0,0,.54-0.34A2.15,2.15,0,0,0,11,11.62a1.83,1.83,0,0,0,.23-0.48,1.66,1.66,0,0,0,.07-0.5,2.51,2.51,0,0,0-.19-1,1.85,1.85,0,0,0-.53-0.72,2.15,2.15,0,0,0-.8-0.45,3.82,3.82,0,0,0-1.07-.15,3.09,3.09,0,0,0-1,.17A2.66,2.66,0,0,0,6.89,9a2.34,2.34,0,0,0-.53.7,2.07,2.07,0,0,0-.19.89H7.53a1.11,1.11,0,0,1,.09-0.47,1,1,0,0,1,.26-0.35,1.24,1.24,0,0,1,.4-0.23,1.53,1.53,0,0,1,.5-0.08,1.2,1.2,0,0,1,.93.32,1.26,1.26,0,0,1,.3.9,1.58,1.58,0,0,1-.08.51,0.91,0.91,0,0,1-.26.39,1.33,1.33,0,0,1-.43.25,1.76,1.76,0,0,1-.61.09H7.83v1.07h0.8a2.35,2.35,0,0,1,.63.07,1.25,1.25,0,0,1,.47.24,1.23,1.23,0,0,1,.3.42,1.47,1.47,0,0,1,.1.59,1.25,1.25,0,0,1-.37,1A1.34,1.34,0,0,1,8.78,15.58Zm8.93-6.17a3.48,3.48,0,0,0-1.19-.8A3.94,3.94,0,0,0,15,8.33H12.53v8.33h2.4a4.25,4.25,0,0,0,1.58-.28,3.44,3.44,0,0,0,1.21-.79,3.51,3.51,0,0,0,.77-1.24,4.75,4.75,0,0,0,.27-1.64V12.3a4.75,4.75,0,0,0-.27-1.64A3.64,3.64,0,0,0,17.71,9.42ZM17.3,12.71a4.54,4.54,0,0,1-.15,1.18,2.53,2.53,0,0,1-.45.89,2,2,0,0,1-.74.55,2.69,2.69,0,0,1-1,.19H14v-6h1a2.07,2.07,0,0,1,1.71.72,3.17,3.17,0,0,1,.6,2.07v0.42ZM12.53,0L11.84,0l4,4,1.39-1.39a10.91,10.91,0,0,1,6.22,8.83H25A12.5,12.5,0,0,0,12.53,0Z" transform="translate(-0.05)"/></svg>