<svg data-name="Layer 1" xmlns="http://www.w3.org/2000/svg" viewBox="0 0 18 10.42">
  <title>
    helicopter
  </title>
  <path fill="#fff" d="M11.07 8.61h-.78A3.56 3.56 0 0 1 7.2 7.26a16.9 16.9 0 0 1-1.06-1.34 1.71 1.71 0 0 0-1.16-.77c-1-.17-2-.38-3-.57l-.39-.07a.9.9 0 0 1-.61-1.28.31.31 0 0 0 0-.34C.69 2.36.38 1.76.07 1.15-.06.9 0 .8.28.8a7.91 7.91 0 0 1 1 0 .89.89 0 0 1 .5.23c.51.55 1 1.12 1.5 1.62a.4.4 0 0 0 .22.1h4.41a.49.49 0 0 0 .25-.14.43.43 0 0 0 .14-.16.84.84 0 0 1 1-.59 1.53 1.53 0 0 0 .27 0v-.4H4A.56.56 0 1 1 4 .35h5.41a.28.28 0 0 0 .2-.06c.3-.41.56-.39.77.06h5.61a.56.56 0 1 1 0 1.11h-5.63v.42a4.87 4.87 0 0 0 .5 0 .62.62 0 0 1 .59.29.43.43 0 0 1 .08.11.85.85 0 0 0 .86.54A7 7 0 0 1 17.1 5.5a1.7 1.7 0 0 1 .4 1.23 1.46 1.46 0 0 1-.68 1.05 4.22 4.22 0 0 1-1.92.73.91.91 0 0 0-.74.48c-.06.1-.13.18-.21.3H16a1.57 1.57 0 0 0 .65-.2.62.62 0 0 0 .24-.36.58.58 0 0 1 .61-.43.55.55 0 0 1 .49.55 1.23 1.23 0 0 1-.35.86 2.12 2.12 0 0 1-1.6.71H7.13a.57.57 0 0 1-.63-.45.55.55 0 0 1 .6-.66h3.2a.42.42 0 0 0 .42-.21c.09-.16.21-.3.35-.49zm5.43-2.2a1.26 1.26 0 0 0-.35-.78 5.65 5.65 0 0 0-2.91-1.81c-.36-.1-.75-.13-1.15-.2v1.79a.29.29 0 0 0 .12.18c.31.24.62.49.94.71a.66.66 0 0 0 .35.12h3zm-3 2.19h-1.44a.14.14 0 0 0-.1 0l-.46.7h1.47a.2.2 0 0 0 .13-.08zm-11.18-5a.38.38 0 0 0-.39-.37.38.38 0 0 0 0 .76.38.38 0 0 0 .43-.35z"/>
</svg>