<svg data-name="Layer 1" xmlns="http://www.w3.org/2000/svg" viewBox="0 0 23.94 22.46">
  <title>
    turntable
  </title>
  <path fill="#fff" stroke="rgba(0,0,0,0.2)" d="M7.66 13.84h6.41a19 19 0 0 0 6.11-1.2 4.78 4.78 0 0 0 1.26-.71 1.46 1.46 0 0 0 .32-.39.39.39 0 0 0 0-.25 2 2 0 0 0-.78-.88 8.17 8.17 0 0 0-1.54-.79 23.59 23.59 0 0 0-7.22-1.33 28.77 28.77 0 0 0-6.42.46 10.15 10.15 0 0 0-4.14 1.57 2 2 0 0 0-.67.81.83.83 0 0 0-.06.31H.01a1.63 1.63 0 0 1 .09-.69 2.9 2.9 0 0 1 .91-1.27 11.12 11.12 0 0 1 4.52-2 30.1 30.1 0 0 1 6.79-.73 25.19 25.19 0 0 1 7.84 1.09 10 10 0 0 1 2 .9 3.77 3.77 0 0 1 1.7 2 2.43 2.43 0 0 1-.08 1.62A3.45 3.45 0 0 1 23 13.5a6.86 6.86 0 0 1-1.86 1.25 21.16 21.16 0 0 1-6.86 1.72c-1 .11-2 .15-2.77.17H9.45l-1.79.11v-2.91z"/>
  <path fill="#fff" stroke="rgba(0,0,0,0.2)" d="M8.27 19.84v-9.12l-4.56 4.56 4.56 4.56"/>
  <path fill="#fff" stroke="rgba(0,0,0,0.2)" d="M10.63 6.52h3.05v2.17h-3.05z"/>
  <path fill="fff" stroke="rgba(0,0,0,0.2)" stroke-miterlimit="10" d="M12.15 2.63v10.35"/>
  <path fill="fff" stroke="rgba(0,0,0,0.2)" d="M15.19 3.04H9.12L12.15 0l3.04 3.04"/>
  <path fill="fff" stroke="rgba(0,0,0,0.2)" stroke-miterlimit="10" d="M12.15 17.65v4.81"/>
</svg>