<svg width="219" height="176" viewBox="0 0 219 176" fill="none" xmlns="http://www.w3.org/2000/svg">
	<rect width="219" height="176" fill="white"/>
	<rect width="219" height="176" fill="url(#paint0_linear_7089_42168)"/>
	<path d="M76.136 77.738C76.136 76.221 74.915 75 73.398 75H66.738C65.258 75 64 76.221 64 77.738V82.992L68.477 84.028V79.44H71.696V85.693H68.625V90.133H71.696V96.423H68.477V91.798L64 92.834V98.162C64 99.642 65.258 100.9 66.738 100.9H73.398C74.915 100.9 76.136 99.642 76.136 98.162L76.173 89.689C76.173 88.727 75.729 88.061 75.174 87.469C75.803 86.951 76.173 86.211 76.173 85.36L76.136 77.738Z" fill="#172B4D"/>
	<path d="M78.8145 75V100.9H88.2125C89.6925 100.9 90.9505 99.642 90.9505 98.162V77.738C90.9505 76.221 89.6925 75 88.2125 75H78.8145ZM86.4735 96.423H83.2545V79.44H86.4735V96.423Z" fill="#172B4D"/>
	<path d="M112.347 100.9L110.497 89.874C111.459 89.43 112.051 88.468 112.051 87.432V77.738C112.051 76.221 110.83 75 109.35 75H99.9521V100.9H104.392V90.133H106.094L107.907 100.9H112.347ZM107.611 85.693H104.392V79.44H107.611V85.693Z" fill="#172B4D"/>
	<path d="M118.845 96.46V93.241H124.987V88.764H118.845V85.582H126.541V81.142H114.405V100.9H126.541V96.46H118.845Z" fill="#172B4D"/>
	<path d="M140.236 83.88C140.236 82.363 139.015 81.142 137.498 81.142H128.1V100.9H132.54V93.204H137.498C139.015 93.204 140.236 91.983 140.236 90.466V83.88ZM135.759 88.764H132.54V85.582H135.759V88.764Z" fill="#172B4D"/>
	<path d="M144.749 81.142C143.232 81.142 142.011 82.363 142.011 83.88V98.162C142.011 99.642 143.232 100.9 144.749 100.9H151.409C152.926 100.9 154.147 99.642 154.147 98.162V83.88C154.147 82.363 152.926 81.142 151.409 81.142H144.749ZM149.67 96.423H146.451V85.582H149.67V96.423Z" fill="#172B4D"/>
	<defs>
		<linearGradient id="paint0_linear_7089_42168" x1="109.5" y1="0" x2="109.5" y2="176" gradientUnits="userSpaceOnUse">
			<stop stop-color="white"/>
			<stop offset="1" stop-color="white" stop-opacity="0"/>
		</linearGradient>
	</defs>
</svg>
