<?xml version="1.0" encoding="UTF-8" standalone="no"?>
<!-- Created with Inkscape (http://www.inkscape.org/) -->

<svg
   xmlns:dc="http://purl.org/dc/elements/1.1/"
   xmlns:cc="http://creativecommons.org/ns#"
   xmlns:rdf="http://www.w3.org/1999/02/22-rdf-syntax-ns#"
   xmlns:svg="http://www.w3.org/2000/svg"
   xmlns="http://www.w3.org/2000/svg"
   xmlns:xlink="http://www.w3.org/1999/xlink"
   xmlns:sodipodi="http://sodipodi.sourceforge.net/DTD/sodipodi-0.dtd"
   xmlns:inkscape="http://www.inkscape.org/namespaces/inkscape"
   width="330.40012"
   height="96.208458"
   id="svg2"
   version="1.1"
   inkscape:version="0.48.4 r9939"
   sodipodi:docname="3D Repo Banner.svg">
  <defs
     id="defs4">
    <color-profile
       name="Nikon-CMYK-4.0.0.3001"
       xlink:href="C:\WINDOWS\system32\spool\drivers\color\NKCMYK.icm"
       id="color-profile2995" />
  </defs>
  <sodipodi:namedview
     id="base"
     pagecolor="#ffffff"
     bordercolor="#666666"
     borderopacity="1.0"
     inkscape:pageopacity="0.0"
     inkscape:pageshadow="2"
     inkscape:zoom="0.69999999"
     inkscape:cx="368.22948"
     inkscape:cy="112.9706"
     inkscape:document-units="px"
     inkscape:current-layer="layer1"
     showgrid="false"
     units="px"
     inkscape:window-width="1080"
     inkscape:window-height="1857"
     inkscape:window-x="-8"
     inkscape:window-y="-8"
     inkscape:window-maximized="1"
     fit-margin-top="0"
     fit-margin-left="0"
     fit-margin-right="0"
     fit-margin-bottom="0" />
  <metadata
     id="metadata7">
    <rdf:RDF>
      <cc:Work
         rdf:about="">
        <dc:format>image/svg+xml</dc:format>
        <dc:type
           rdf:resource="http://purl.org/dc/dcmitype/StillImage" />
        <dc:title></dc:title>
      </cc:Work>
    </rdf:RDF>
  </metadata>
  <g
     inkscape:label="Layer 1"
     inkscape:groupmode="layer"
     id="layer1"
     transform="translate(-393.0509,4913.2915)">
    <flowRoot
       transform="matrix(6.5887859,0,0,6.5887859,-883.63895,-6456.7309)"
       xml:space="preserve"
       id="flowRoot2985"
       style="font-size:8px;font-style:normal;font-variant:normal;font-weight:normal;font-stretch:normal;text-align:start;line-height:125%;letter-spacing:0px;word-spacing:0px;writing-mode:lr-tb;text-anchor:start;fill:#000000;fill-opacity:1;stroke:none;font-family:Calibri;-inkscape-font-specification:Calibri"><flowRegion
         id="flowRegion2987"><rect
           id="rect2989"
           width="347.14285"
           height="447.14285"
           x="127.14286"
           y="245.21933" /></flowRegion><flowPara
         id="flowPara2991" /></flowRoot>    <g
       transform="matrix(13.502942,0,0,13.502942,-497.72131,-4961.3957)"
       style="font-size:10px;font-style:normal;font-weight:normal;line-height:125%;letter-spacing:0px;word-spacing:0px;fill:#ffffff;fill-opacity:1;stroke:#ffffff;stroke-width:0.1096512;stroke-miterlimit:4;stroke-opacity:1;font-family:Sans"
       id="flowRoot3775"
       inkscape:export-filename="C:\Users\Jozef\Dropbox\Business\EPSRC ICT Research Pioneers\banner\3drepo_logo_whitepng.png"
       inkscape:export-xdpi="14.343108"
       inkscape:export-ydpi="14.343108">
      <path
         inkscape:connector-curvature="0"
         d="M 69.298704,4.3701702 C 69.293492,4.1599709 69.22141,3.9853899 69.082457,3.8464267 68.943497,3.707477 68.768916,3.6353947 68.558713,3.6301797 l -1.799976,0 c -0.205832,0.00522 -0.379163,0.077298 -0.519994,0.2162474 -0.140832,0.1389632 -0.214164,0.313544 -0.219997,0.5237431 l 0,1.4199817 1.209985,0.2799964 0,-1.2399841 0.869988,0 0,1.6899783 -0.829989,0 0,1.1999845 0.829989,0 0,1.6999782 -0.869988,0 0,-1.249984 -1.209985,0.2799964 0,1.4399815 c 0.0058,0.2058309 0.07917,0.3791619 0.219997,0.5199929 0.140831,0.140832 0.314162,0.214164 0.519994,0.219998 l 1.799976,0 c 0.210203,-0.0058 0.384784,-0.07917 0.523743,-0.219998 0.138953,-0.140831 0.211036,-0.314162 0.216248,-0.5199929 l 0.01,-2.2899705 c -0.0019,-0.1287453 -0.02813,-0.2412438 -0.07875,-0.3374958 -0.05063,-0.096245 -0.114377,-0.1837441 -0.191248,-0.2624965 0.08562,-0.070621 0.15187,-0.1543696 0.198748,-0.251247 0.04687,-0.09687 0.07062,-0.2031181 0.07125,-0.3187457 z m -0.319996,6.0099228 c -0.03,0.02042 -0.06,0.03958 -0.09,0.0575 -0.03,0.01792 -0.06,0.03208 -0.09,0.0425 l -0.409994,-0.409995 0.279996,0 0.309996,0.309996 z m -0.77999,-2.6899656 0.449994,-0.4499942 0,2.6799655 -0.449994,-0.4599941 z m -0.729991,-0.059999 -0.04,0 0.02,-0.02 z m 0.189998,-0.229997 0.219997,0.229997 -0.279996,0 -0.08,-0.089999 z m -0.289996,-0.699991 0.429994,0.4299944 -0.429994,0.4299945 z m 1.279983,-2.3699695 0,2.6899654 -0.449994,-0.4599941 0,-1.7699772 z m 0.559993,0.059999 0,0.2699965 -0.449994,-0.4399943 0.139998,-0.1399982 z m 0,2.0699734 c -0.0046,0.040212 -0.01042,0.079795 -0.0175,0.1187485 -0.0071,0.038962 -0.01792,0.076045 -0.0325,0.1112485 l -0.409995,-0.4099947 0,-0.2799964 z m -0.459994,-0.8699888 0.459994,0.459994 0,0.2799964 -0.459994,-0.459994 z m 0,-0.4199946 0.459994,0.459994 0,0.2799964 -0.459994,-0.459994 z m 0,-0.4099947 0.459994,0.459994 0,0.2799964 -0.459994,-0.4599941 z m 0,-0.4199946 0.459994,0.459994 0,0.2799964 -0.459994,-0.459994 z m -0.349996,-0.059999 0.169998,0 -0.08,0.079999 z m 0.02,0.1499981 -0.139998,0.1399982 -0.289996,-0.2899963 0.279996,0 z m 0.07,2.8399634 -0.1,-0.099999 0.189997,0 z m -0.07,0.059999 -0.139998,0.1399982 -0.299996,-0.2999962 0.269996,0 z m 0.78999,2.4499684 0,0.1099986 c -0.0017,0.05 -0.0083,0.099999 -0.02,0.1499979 l -0.439994,-0.4399942 0,-0.2799964 z m -0.459994,-0.8699888 0.459994,0.4599941 0,0.2699965 -0.459994,-0.4499942 z m 0,-0.4199946 0.459994,0.4599941 0,0.2799964 -0.459994,-0.4599941 z m 0,-0.4099947 0.459994,0.4599941 0,0.2699965 -0.459994,-0.4499942 z m 0,-0.4199946 0.459994,0.4599941 0,0.2799964 -0.459994,-0.4599941 z m 0,-0.4099947 0.459994,0.4499942 0,0.2799964 -0.459994,-0.4499942 z m 0.149998,-0.2699965 c -0.0096,0.005 -0.01792,0.010003 -0.025,0.015 -0.0071,0.005 -0.01542,0.010004 -0.025,0.015 -0.01542,0.00542 -0.03209,0.012087 -0.05,0.02 -0.01792,0.00792 -0.03459,0.014587 -0.05,0.02 l 0,-0.2199972 z m -0.149998,-0.2799964 0,-0.2799964 0.359995,0.3599953 c -0.03834,0.050003 -0.08167,0.1000025 -0.129998,0.1499981 z m 0.219997,-2.6899654 0.07,-0.069999 c 0.08,0.080006 0.129995,0.1800042 0.149998,0.2999961 z M 68.558713,3.7201785 c 0.08,6.32e-4 0.154995,0.014382 0.224997,0.04125 0.07,0.026882 0.134995,0.063131 0.194998,0.1087485 l -0.309996,0.309996 -2.019974,0 -0.299996,-0.2999961 c 0.05521,-0.050409 0.117289,-0.089575 0.186248,-0.1174987 0.06896,-0.02791 0.143538,-0.042076 0.223747,-0.042499 l 1.799976,0 z m -0.669991,1.009987 -0.279996,0 -0.449995,-0.4499942 0.279997,0 z M 66.46874,5.8001518 66.208744,5.7401528 66.338742,5.6701538 z M 66.618738,5.5201554 67.028733,5.9301501 66.648738,5.8401511 66.428741,5.620154 z m 0.05,-0.3499955 0.459994,0.459994 0,0.2699966 -0.459994,-0.4599941 z m 0,-0.4099947 0.459994,0.459994 0,0.2699966 -0.459994,-0.4499943 z m 0,-0.1399982 0,-0.2799964 0.459994,0.459994 0,0.2799964 z m -0.09,-0.3699953 0,1.1799848 -0.459994,0.2399969 0,-1.2999832 c 4.16e-4,-0.080617 0.01458,-0.1568664 0.0425,-0.228747 0.02792,-0.071868 0.06708,-0.1356168 0.117499,-0.1912476 z m 0.159998,0.03 0.279996,0 0.459994,0.4499942 -0.279996,0 z m 0.829989,0 0.279997,0 0.359995,0.3599954 -0.09,0.089999 -0.09,0 z m 0.549993,2.3399699 c 0.215619,0.2156258 0.346868,0.3468739 0.393745,0.3937447 0.04687,0.046878 0.06562,0.065628 0.05625,0.056249 l -0.689991,0 -0.459994,-0.4499942 0.699991,0 z m -0.389995,0.7099909 0.139998,-0.1399982 0.339996,0.3499955 -0.08,0.089999 -0.109999,0 z m 0.839989,2.6499658 -1.829976,0 0.459994,-0.459994 0.919988,0 z m -1.949975,0.5299927 c -0.05062,-0.01021 -0.09937,-0.02729 -0.146248,-0.05125 -0.04687,-0.02396 -0.08812,-0.05354 -0.123748,-0.08875 l 0.06,-0.06 z m 0,-0.409995 0.429995,0.429995 -0.279997,0 -0.289996,-0.289996 z m 0.05,-0.4999928 0,-0.2799964 0.299996,0.2999962 -0.139998,0.1399982 z m 0.459994,-1.0599863 0,0.2699965 -0.229997,-0.229997 0.139998,-0.1399982 z m 0,0.4099947 0,0.2799964 -0.439994,-0.4399943 0.139998,-0.1399982 z m -0.459994,0.2399969 0,-0.2799964 0.459994,0.4599941 0,0.079999 -0.09,0.099999 z m 0.429994,-0.8199894 0.03,-0.03 0,0.059999 z M 66.208744,8.500117 67.028733,8.3101194 66.618738,8.7201142 z m 0.549993,1.319983 -0.09,0.089999 0,-0.1699978 z m 0.249996,0.249997 0.459994,0.459994 -0.279996,0 -0.459994,-0.459994 z m 0.409995,0 0.459994,0.459994 -0.279996,0 -0.449994,-0.459994 z m 0.419995,0 0.459994,0.459994 -0.279997,0 -0.459994,-0.459994 z m -1.259984,-1.259984 0,1.189985 -0.299996,0.309996 c -0.05042,-0.06 -0.08958,-0.124998 -0.117499,-0.194998 -0.02792,-0.07 -0.04208,-0.1449975 -0.0425,-0.2249969 l 0,-1.319983 z m 1.849976,1.719978 -0.449994,-0.459994 0.269996,0 0.449995,0.449994 c -0.02459,4.17e-4 -0.04792,0.0021 -0.07,0.005 -0.02209,0.0029 -0.04542,0.0046 -0.07,0.005 z m 0.319996,-0.509994 0,-0.279996 0.399995,0.399995 c -0.02167,0.06167 -0.05834,0.118332 -0.109999,0.169998 z m 0.03,-2.8799625 c 0.01958,-0.00541 0.03791,-0.01208 0.055,-0.02 0.01708,-0.00791 0.03541,-0.01458 0.055,-0.02 0.02833,-0.018329 0.05166,-0.031663 0.07,-0.039999 0.07541,0.073753 0.134579,0.1512515 0.177498,0.232497 0.04291,0.081252 0.06708,0.173751 0.0725,0.2774965 z"
         style="font-variant:normal;font-stretch:normal;fill:#ffffff;stroke:#ffffff;font-family:Sullivan;-inkscape-font-specification:Sullivan"
         id="path2992" />
      <path
         inkscape:connector-curvature="0"
         d="m 69.905465,3.6301797 0,6.9999103 2.539967,0 c 0.205828,-0.0058 0.379159,-0.07917 0.519993,-0.219998 0.140828,-0.140831 0.214161,-0.314162 0.219998,-0.5199929 l 0,-5.5199289 C 73.179586,4.1599709 73.106254,3.9853899 72.965425,3.8464267 72.824591,3.707477 72.65126,3.6353947 72.445432,3.6301797 z m 0.549993,6.3699183 -0.459994,0.459994 0,-6.6699144 0.459994,0.4599941 z m 1.829976,-5.7199267 0.169998,0 -0.09,0.079999 z m 0.01,0.1499981 -0.139998,0.1399982 -0.289996,-0.2899963 0.279996,0 z m -0.209997,0.2099973 -0.09,0.089999 -0.09,0 -0.449994,-0.4499942 0.269996,0 z m -0.109999,4.7799385 -0.869989,0 0,-4.589941 0.869989,0 z m -0.199997,-4.6899397 -0.279997,0 -0.459994,-0.4499942 0.279997,0 z m -0.419995,0 -0.279996,0 -0.449994,-0.4499942 0.269996,0 z m -0.799989,3.3499569 0.449994,0.4599941 0,0.2699965 -0.449994,-0.4499942 z m 0.449994,1.1499852 -0.449994,-0.4599941 0,-0.2799964 0.449994,0.4599941 z m -0.449994,-1.5699798 0.449994,0.4599941 0,0.2799964 -0.449994,-0.4599941 z m 0,-0.4099947 0.449994,0.4599941 0,0.2699965 -0.449994,-0.4499942 z m 0,-0.4199946 0.449994,0.4599941 0,0.2799964 -0.449994,-0.4599941 z m 0,-0.4099947 0.449994,0.4599941 0,0.2699965 -0.449994,-0.4499942 z m 0,-0.4199946 0.449994,0.4599941 0,0.2799964 -0.449994,-0.4599941 z m 0,-0.4099947 0.449994,0.459994 0,0.2699966 -0.449994,-0.4499942 z m 0,-0.4199946 0.449994,0.459994 0,0.2799964 -0.449994,-0.459994 z m 0,-0.4099947 0.449994,0.459994 0,0.2699966 -0.449994,-0.4499943 z m 0.08,5.0599348 -0.08,0.089999 0,-0.1699978 z m -0.08,-0.2199972 0,-0.2799964 0.289996,0.2999962 -0.139998,0.1399982 z m 0,-0.4099947 0,-0.2799964 0.449994,0.4599941 0,0.079999 -0.09,0.099999 z m 0.449994,-4.1099471 -0.449994,-0.459994 0,-0.2799964 0.449994,0.459994 z m -0.909989,5.44993 -0.03,0 0.02,-0.02 z m 0.199998,-0.219997 0.219997,0.219997 -0.279996,0 -0.08,-0.08 z m 0.199997,-0.209998 0.429995,0.429995 -0.269997,0 -0.299996,-0.289996 z m 0.389995,-0.03 0.459994,0.459994 -0.279996,0 -0.459994,-0.459994 z m 0.419995,0 0.449994,0.459994 -0.269996,0 -0.459995,-0.459994 z m 0.409995,0 0.459994,0.459994 -0.279997,0 -0.459994,-0.459994 z m -0.639992,-0.5499931 0.919988,0 0.459994,0.459994 -1.829976,0 z m 1.779977,0.8599891 c -0.025,0.02042 -0.0525,0.03958 -0.0825,0.0575 -0.03,0.01792 -0.0625,0.03208 -0.0975,0.0425 l -0.409994,-0.409995 0.279996,0 z m -0.77999,-5.5899282 0.459994,-0.4599941 0,5.589928 -0.459994,-0.4599941 z m 1.009987,4.9899357 0,0.1099986 c -0.0017,0.05 -0.0083,0.099999 -0.02,0.1499979 l -0.439994,-0.4399942 0,-0.2799964 z m -0.459994,-0.8699888 0.459994,0.4599941 0,0.2699965 -0.459994,-0.4499942 z m 0,-0.4199946 0.459994,0.4599941 0,0.2799964 -0.459994,-0.4599941 z m 0,-0.4099947 0.459994,0.4599941 0,0.2699965 -0.459994,-0.4499942 z m 0,-0.4199946 0.459994,0.4599941 0,0.2799964 -0.459994,-0.4599941 z m 0,-0.4099947 0.459994,0.4599941 0,0.2699965 -0.459994,-0.4499942 z m 0,-0.4199946 0.459994,0.4599941 0,0.2799964 -0.459994,-0.4599941 z m 0,-0.4099947 0.459994,0.4599941 0,0.2699965 -0.459994,-0.4499942 z m 0,-0.4199946 0.459994,0.4599941 0,0.2799964 -0.459994,-0.4599941 z m 0,-0.4099947 0.459994,0.459994 0,0.2699966 -0.459994,-0.4499942 z m 0,-0.4199946 0.459994,0.459994 0,0.2799964 -0.459994,-0.459994 z m 0,-0.4099947 0.459994,0.459994 0,0.2699966 -0.459994,-0.4499943 z m 0,-0.4199946 0.459994,0.459994 0,0.2799964 -0.459994,-0.459994 z m 0.159998,-0.2599967 0.299996,0.309996 0,0.2699965 -0.439994,-0.4399943 z m 0.139998,-0.1399982 c 0.07,0.080006 0.119995,0.1800042 0.149998,0.2999961 l -0.229997,-0.229997 z m -0.379995,0.2399969 -2.019974,0 -0.459994,-0.4599941 2.379969,0 c 0.07583,6.32e-4 0.149162,0.014382 0.219997,0.04125 0.07083,0.026882 0.134162,0.063131 0.189998,0.1087485 z m -0.689991,5.8899244 0.279996,0 0.439995,0.449994 c -0.02042,4.17e-4 -0.04209,0.0021 -0.065,0.005 -0.02292,0.0029 -0.04458,0.0046 -0.065,0.005 l -0.129998,0 z m 0.76999,-0.05 0,-0.279996 0.409995,0.399995 c -0.03167,0.06167 -0.06834,0.118332 -0.109999,0.169998 z"
         style="font-variant:normal;font-stretch:normal;fill:#ffffff;stroke:#ffffff;font-family:Sullivan;-inkscape-font-specification:Sullivan"
         id="path2994" />
      <path
         inkscape:connector-curvature="0"
         d="M 78.743703,10.63009 78.243709,7.6501279 c 0.131245,-0.062496 0.233744,-0.1524947 0.307496,-0.2699965 0.07375,-0.1174952 0.111246,-0.2474934 0.112499,-0.389995 l 0,-2.6199662 C 78.658284,4.1599709 78.586618,3.9853899 78.448707,3.8464267 78.310789,3.707477 78.139124,3.6353947 77.933713,3.6301797 l -2.539967,0 0,6.9999103 1.199985,0 0,-2.909963 0.459994,0 0.489993,2.909963 z m -1.769977,-2.9999618 -0.459994,-0.4599941 0.279996,0 0.359995,0.3599954 -0.08,0.099999 z m -1.489981,-3.8299507 0.459994,0.4499942 0,5.7599263 -0.459994,0.449994 z m 3.08996,0.5899924 0,0.2799964 -0.439994,-0.4399943 0.129998,-0.1399982 z m -0.419994,3.259958 0.06,0.3999949 -0.559993,-0.5599928 -0.05,-0.2999961 z m -0.419995,-0.4799938 0.02,0 0.279996,0 0.309996,0.309996 c -0.04167,0.030003 -0.08834,0.060002 -0.139998,0.089999 z m 0.279996,-2.8299635 0,2.6799655 -0.449994,-0.4599941 0,-1.7699772 z m 0.559993,2.5399673 0,0.1099985 c -0.0017,0.050003 -0.0083,0.1000023 -0.02,0.1499981 l -0.439994,-0.4399943 0,-0.2799964 z m -0.459994,-0.8699888 0.459994,0.4499942 0,0.2799964 -0.459994,-0.4499942 z m 0,-0.4199946 0.459994,0.459994 0,0.2799964 -0.459994,-0.459994 z m 0,-0.4099948 0.459994,0.4499942 0,0.2799964 -0.459994,-0.4499942 z m 0,-0.4199945 0.459994,0.459994 0,0.2799964 -0.459994,-0.4599941 z m 0,-0.4099948 0.459994,0.4599941 0,0.2699965 -0.459994,-0.4499942 z m -0.339996,-0.069999 0.159998,0 -0.08,0.089999 z m 0.01,0.1499981 -0.139998,0.1399982 -0.289996,-0.2899963 0.279996,0 z m -0.209997,0.2099973 -0.09,0.099999 -0.09,0 -0.449994,-0.4599941 0.269997,0 z m -0.109999,1.8799758 -0.869988,0 0,-1.6899783 0.869988,0 z m -0.199997,-1.7799771 -0.279996,0 -0.459994,-0.4599941 0.279996,0 z m -0.419995,0 -0.279996,0 -0.449994,-0.4599941 0.269996,0 z m -0.799989,0.4399943 0.449994,0.4499942 0,0.2799964 -0.449994,-0.4499942 z m 0.449994,1.1499852 -0.449994,-0.459994 0,-0.2799964 0.449994,0.459994 z m -0.449994,-1.5699797 0.449994,0.459994 0,0.2799964 -0.449994,-0.4599941 z m 0.449994,5.0199353 0,0.2799964 -0.449994,-0.4599941 0,-0.2699965 z m -0.449994,-0.8699888 0.449994,0.4599941 0,0.2799964 -0.449994,-0.4599941 z m 0.08,-1.9899744 -0.08,0.089999 0,-0.1699978 z m -0.08,-0.2199971 0,-0.2799964 0.289996,0.2899962 -0.139998,0.1399982 z m 0,-0.4099947 0,-0.2799964 0.449994,0.4499942 0,0.089999 -0.09,0.099999 z m 0.449994,-1.2099845 -0.449994,-0.4499942 0,-0.2799964 0.449994,0.4599941 z m -0.909988,5.4499299 -0.03,0 0.02,-0.02 z m 0.199997,-0.219997 0.219997,0.219997 -0.279996,0 -0.08,-0.08 z m 0.199998,-0.209998 0.429994,0.429995 -0.269997,0 -0.299996,-0.289996 z m 0.06,-0.3599949 0.449994,0.4599939 0,0.269997 -0.449994,-0.449995 z m 0,-1.239984 0.449994,0.4499942 0,0.2799964 -0.449994,-0.4599941 z m 0,-0.4199946 0.449994,0.4599941 0,0.2799964 -0.449994,-0.4599941 z m 0,-0.4099947 0.449994,0.4499942 0,0.2799964 -0.449994,-0.4599941 z m 0.449994,0.3199959 -0.449994,-0.4599941 0,-0.2799964 0.449994,0.4599941 z m 0.989987,-1.3699824 0.449994,0.4499942 -1.819976,0 0.449994,-0.4499942 z m -0.559993,0.5499929 0.279997,0 0.129998,0.1299983 -0.119998,0.1499981 z m 0.419995,0 0.09,0 -0.04,0.049999 z m 0.959988,1.3699824 -0.559993,-0.5499929 -0.06,-0.3399957 0.559992,0.5599928 z m 0.08,0.4999935 -0.549993,-0.5499929 -0.06,-0.3399956 0.549993,0.5599928 z m 0.08,0.4999936 -0.549993,-0.5499929 -0.05,-0.3299958 0.549993,0.549993 z m 0.09,0.4999933 -0.549992,-0.5499926 -0.06,-0.3299958 0.549993,0.539993 z m 0.07,0.429995 -0.529994,-0.469994 -0.06,-0.3399958 0.539993,0.5399928 z m -0.08,0.06 -0.329996,0 -0.279997,-0.279997 0.129999,-0.149998 z m -0.429995,-3.419956 0,-0.2699965 0.399995,0.3999948 c -0.01042,0.030211 -0.02459,0.059794 -0.0425,0.088749 -0.01792,0.028961 -0.03709,0.056044 -0.0575,0.081249 z m 0.219997,-3.0899602 0.08,-0.079999 c 0.07166,0.090005 0.118329,0.1900041 0.139998,0.2999961 z m -0.299996,0.1599979 -2.019974,0 -0.459994,-0.4499942 2.379969,0 c 0.07583,7.1e-6 0.149162,0.012507 0.219998,0.0375 0.07083,0.025006 0.134161,0.062506 0.189997,0.1124984 z m -1.939975,2.9899615 0.279997,0 0.459994,0.4599941 -0.279997,0 z m 1.419982,0.049999 0.489994,2.8099638 -0.389995,0.439995 -0.459995,-2.7799649 z m 0.229997,3.2499588 0.129998,-0.149998 0.199998,0.209997 -0.279997,0 z"
         style="font-variant:normal;font-stretch:normal;fill:#ffffff;stroke:#ffffff;font-family:Sullivan;-inkscape-font-specification:Sullivan"
         id="path2996" />
      <path
         inkscape:connector-curvature="0"
         d="m 80.539043,9.430105 0,-0.8699888 1.659979,0 0,-1.2099844 -1.659979,0 0,-0.8599889 2.079973,0 0,-1.1999846 -3.279957,0 0,5.3399317 3.279957,0 0,-1.199985 z m -0.649991,-3.5199547 0,4.0999477 -0.449995,0.459994 0,-5.0199357 z m 1.319983,0.4899937 -0.279997,0 -0.459994,-0.459994 0.279996,0 z m -0.04,-0.459994 0.449994,0.459994 -0.269996,0 -0.459994,-0.459994 z m 0.409995,0 0.459994,0.459994 -0.279997,0 -0.459994,-0.459994 z m 0.419994,0 0.449995,0.459994 -0.269997,0 -0.459994,-0.459994 z m 0.219998,-0.1999975 0.299996,0.309996 0,0.2799964 -0.439995,-0.4499942 z m 0.209997,-0.1999974 0.09,0.089999 0,0.2799964 -0.229997,-0.229997 z m 0.09,-0.099999 0,0.059999 -0.02,-0.03 z m -2.559967,0.3999948 -0.449995,-0.459994 2.929963,0 -0.449994,0.459994 z m 0.489993,3.10996 0,0.2799964 -0.459994,-0.4499942 0,-0.2799964 z m 0,-2.0699733 0,0.2799964 -0.459994,-0.4599941 0,-0.2799964 z m -0.369995,2.949962 -0.09,0.079999 0,-0.1699978 z m -0.09,-0.2199972 0,-0.2799964 0.289997,0.2899963 -0.139999,0.1399982 z m 0,-0.4199946 0,-0.2799964 0.459994,0.4599941 0,0.089999 -0.1,0.089999 z m 0.459994,-0.3699952 -0.459994,-0.4599941 0,-0.2799964 0.459994,0.4599941 z m -0.369995,-1.0699862 -0.09,0.089999 0,-0.1699978 z m -0.09,-0.2199972 0,-0.2799964 0.289997,0.2899963 -0.139999,0.1399982 z m 0,-0.4099947 0,-0.2799964 0.459994,0.4499942 0,0.089999 -0.1,0.099999 z m 0,-0.8299893 0,-0.2799964 0.459994,0.4499942 0,0.2799964 z m -0.449994,4.2399458 -0.03,0 c 4.17e-4,-4.17e-4 0.0021,-0.0021 0.005,-0.005 0.0029,-0.0029 0.0046,-0.0046 0.005,-0.005 z m 0.189998,-0.219997 0.219997,0.219997 -0.279997,0 -0.08,-0.08 z m 0.209997,-0.209998 0.429994,0.429995 -0.279996,0 -0.289996,-0.289996 z m 0.389995,-0.02 0.449994,0.449994 -0.279996,0 -0.449995,-0.449994 z m 0.409995,0 0.459994,0.449994 -0.279997,0 -0.459994,-0.449994 z m 0.419994,0 0.449994,0.449994 -0.279996,0 -0.449994,-0.449994 z m 0.409995,0 0.459994,0.449994 -0.279996,0 -0.459994,-0.449994 z m 0.419995,0 0.449994,0.449994 -0.279997,0 -0.449994,-0.449994 z m 0.229997,-0.1799983 0.299996,0.2999963 0,0.279997 -0.439995,-0.439995 z m 0.209997,-0.2099973 0.09,0.089999 0,0.2799966 -0.229997,-0.2299972 z m 0.09,-0.04 -0.03,-0.03 0.03,-0.03 z m -0.519994,0.3299957 -1.939975,0 0.459994,-0.459994 1.929976,0 z m -1.949975,-1.9799745 0.279997,0 0.449994,0.4599941 -0.279996,0 z m 2.029974,-0.459994 0.03,-0.02 0,0.049999 z m 0.03,0.1699978 0,0.2799964 -0.239997,-0.2399969 0.139998,-0.1399982 z m 0,0.4099947 0,0.2799964 -0.449994,-0.4399943 0.139998,-0.1399982 z m -0.08,0.3399956 -0.279996,0 -0.459994,-0.4599941 0.279996,0 z m -0.419995,0 -0.279996,0 -0.449994,-0.4599941 0.279996,0 z m -0.409994,0 -0.279997,0 -0.459994,-0.4599941 0.279997,0 z m 0.379995,-0.5499929 -1.519981,0 0.459994,-0.4599941 1.519981,0 z m -1.51998,-1.9699728 0.279997,0 0.449994,0.459994 -0.269997,0 z"
         style="font-variant:normal;font-stretch:normal;fill:#ffffff;stroke:#ffffff;font-family:Sullivan;-inkscape-font-specification:Sullivan"
         id="path2998" />
      <path
         inkscape:connector-curvature="0"
         d="M 86.505735,6.0301488 C 86.500523,5.8199479 86.428441,5.6453669 86.289488,5.5064053 86.150528,5.367454 85.975947,5.2953717 85.765745,5.2901583 l -2.539968,0 0,5.3399317 1.199985,0 0,-2.0799736 1.339983,0 c 0.210202,-0.00521 0.384783,-0.077289 0.523743,-0.2162473 0.138953,-0.1389542 0.211035,-0.3135351 0.216247,-0.5237432 l 0,-1.7799771 z m -0.909988,1.9699746 0.269996,0 0.309996,0.309996 c -0.05167,0.038335 -0.108335,0.071668 -0.169997,0.099999 z m -0.509994,0.4599941 -0.279996,0 -0.459994,-0.4599941 0.179998,0 0.1,0 z m -0.05,-0.4599941 0.459994,0.4599941 -0.279996,0 -0.449994,-0.4599941 z m -1.089986,-0.099999 0.449994,-0.4499942 0.919988,0 0.459995,0.4499942 -1.249984,0 z M 83.775769,5.91015 l 0,4.089948 -0.449994,0.459994 0,-5.009936 z m 1.829977,0.03 0.169998,0 -0.09,0.079999 z m 0.01,0.149998 -0.129999,0.1399982 -0.299996,-0.2899962 0.279997,0 z m -0.199998,0.2099973 -0.1,0.089999 -0.09,0 -0.449995,-0.4499942 0.279997,0 z m -0.119998,1.0499865 -0.869989,0 0,-0.8599889 0.869989,0 z m -0.199998,-0.9599876 -0.279996,0 -0.459994,-0.4499942 0.279996,0 z m -0.419994,0 -0.279997,0 -0.449994,-0.4499942 0.279997,0 z m -0.339996,3.2499581 -0.459994,-0.4499942 0,-0.2799964 0.459994,0.4599941 z m 0,-2.4899679 -0.459994,-0.4499942 0,-0.2799964 0.459994,0.4599941 z m 0,2.6299661 0,0.2799965 -0.459994,-0.4599942 0,-0.2799964 z m -0.379995,-2.0299738 -0.08,0.079999 0,-0.1699978 z m -0.08,-0.2199972 0,-0.2799964 0.289996,0.2899963 -0.139998,0.1399982 z m 0,-0.4199946 0,-0.2799964 0.459994,0.4599941 0,0.089999 -0.1,0.089999 z m 0.459994,-0.3699952 -0.459994,-0.4599941 0,-0.2799964 0.459994,0.4599941 z m -0.909988,3.7899513 -0.03,0 0.01,-0.02 z m 0.189997,-0.219997 0.219998,0.219997 -0.279997,0 -0.08,-0.08 z m 0.209998,-0.209998 0.429994,0.429995 -0.279996,0 -0.289997,-0.289996 z m 0.05,-0.359995 0.459994,0.459994 0,0.269997 -0.459994,-0.449995 z m 0,-1.2499839 0.459994,0.4599941 0,0.2799964 -0.459994,-0.4599941 z m 0.459994,0.3199959 -0.459994,-0.4499942 0,-0.2799964 0.459994,0.4599941 z m 1.059986,-2.3599696 0.459995,-0.4599941 0,1.8599761 -0.459995,-0.4599941 z m 1.009987,1.2599838 0,0.099999 c -0.0017,0.058335 -0.0083,0.111668 -0.02,0.1599979 l -0.439995,-0.4399943 0,-0.2799964 z m -0.459994,-0.8799887 0.459994,0.4599941 0,0.2799964 -0.459994,-0.4599941 z m 0,-0.4099947 0.459994,0.4599941 0,0.2699965 -0.459994,-0.4499942 z m 0,-0.4199946 0.459994,0.4599941 0,0.2799964 -0.459994,-0.4599941 z m 0.159998,-0.2599967 0.299996,0.309996 0,0.2699966 -0.439994,-0.4399944 z m 0.139999,-0.1399982 c 0.07,0.080004 0.119995,0.1800026 0.149998,0.2999962 L 86.175739,5.6701534 z m -0.379996,0.2399969 -2.019974,0 -0.449994,-0.459994 2.36997,0 c 0.0802,6.303e-4 0.154786,0.01438 0.223747,0.04125 0.06895,0.02688 0.131036,0.063129 0.186247,0.1087485 z m -1.929975,2.1599722 0.269997,0 0.459994,0.4599941 -0.279997,0 z m 1.239984,0 0.279997,0 0.439994,0.4399944 c -0.02042,0.00521 -0.04209,0.00979 -0.065,0.01375 -0.02292,0.00396 -0.04459,0.00604 -0.065,0.00625 l -0.129999,0 z m 0.76999,-0.059999 0,-0.2799964 0.409995,0.4099947 c -0.03167,0.061668 -0.06834,0.1183344 -0.109998,0.1699978 z"
         style="font-variant:normal;font-stretch:normal;fill:#ffffff;stroke:#ffffff;font-family:Sullivan;-inkscape-font-specification:Sullivan"
         id="path3000" />
      <path
         inkscape:connector-curvature="0"
         d="m 87.852487,5.2901583 c -0.210207,0.00521 -0.384788,0.077296 -0.523744,0.2162475 -0.138957,0.1389615 -0.211039,0.3135423 -0.216247,0.523743 l 0,3.8599503 c 0.0052,0.2058309 0.07729,0.3791619 0.216248,0.5199929 0.138955,0.140832 0.313536,0.214164 0.523743,0.219998 l 1.799976,0 c 0.210203,-0.0058 0.384784,-0.07917 0.523743,-0.219998 0.138953,-0.140831 0.211036,-0.314162 0.216248,-0.5199929 l 0,-3.8599503 C 90.387242,5.8199479 90.31516,5.6453669 90.176207,5.5064053 90.037247,5.367454 89.862666,5.2953717 89.652463,5.2901583 z m -0.149998,5.2199327 c -0.1,-0.02167 -0.189999,-0.06833 -0.269997,-0.139998 l 0.07,-0.06 z m 0.01,-0.409995 0.429995,0.429995 -0.279997,0 -0.289996,-0.289996 z m 1.779977,-4.159946 0.169998,0 -0.09,0.079999 z m 0.01,0.149998 -0.129998,0.1399982 -0.299996,-0.2899962 0.279996,0 z m -0.199997,0.2099973 -0.1,0.089999 -0.09,0 -0.449994,-0.4499942 0.279997,0 z m -0.119999,3.1199599 -0.869988,0 0,-2.9299623 0.869988,0 z m -0.199997,-3.029961 -0.279996,0 -0.459994,-0.4499942 0.279996,0 z m -0.419995,0 -0.279996,0 -0.449994,-0.4499942 0.279996,0 z m -0.799989,3.2099586 0,-0.2799964 0.289996,0.2999962 -0.139998,0.1399982 z m 0,-1.5199804 0.459994,0.4599941 0,0.2699965 -0.459994,-0.4499942 z m 0.459994,1.1499852 -0.459994,-0.4599941 0,-0.2799964 0.459994,0.4599941 z m -0.459994,-1.5699798 0.459994,0.4599941 0,0.2799964 -0.459994,-0.4599941 z m 0,-0.4099947 0.459994,0.4599941 0,0.2699965 -0.459994,-0.4499942 z m 0,-0.4199946 0.459994,0.4599941 0,0.2799964 -0.459994,-0.4599941 z m 0,-0.4099947 0.459994,0.4599941 0,0.2699965 -0.459994,-0.4499942 z m 0,2.7699643 0,-0.2799964 0.459994,0.4599941 0,0.079999 -0.1,0.099999 z m 0.459994,-2.4499684 -0.459994,-0.4599941 0,-0.2799964 0.459994,0.4599941 z M 87.842487,9.8201 l -0.08,0.089999 0,-0.1699978 z m 0.249997,0.249997 0.459994,0.459994 -0.279997,0 -0.449994,-0.459994 z m 0.419994,0 0.459994,0.459994 -0.279996,0 -0.459994,-0.459994 z m 0.409995,0 0.459994,0.459994 -0.279996,0 -0.449995,-0.459994 z m -0.639992,-0.5499931 0.919988,0 0.459994,0.459994 -1.829976,0 z m 1.779977,0.8599891 c -0.02521,0.02042 -0.05229,0.03958 -0.08125,0.0575 -0.02896,0.01792 -0.05854,0.03208 -0.08875,0.0425 l -0.409994,-0.409995 0.269996,0 z m -0.77999,-3.9299496 0.459994,-0.4599941 0,3.9299494 -0.459994,-0.4599941 z m 1.009987,3.3299571 0,0.1099986 c -0.0017,0.05 -0.0083,0.099999 -0.02,0.1499979 l -0.439994,-0.4399942 0,-0.2799964 z m -0.459994,-0.8699888 0.459994,0.4599941 0,0.2699965 -0.459994,-0.4499942 z m 0,-0.4199946 0.459994,0.4599941 0,0.2799964 -0.459994,-0.4599941 z m 0,-0.4099947 0.459994,0.4599941 0,0.2699965 -0.459994,-0.4499942 z m 0,-0.4199946 0.459994,0.4599941 0,0.2799964 -0.459994,-0.4599941 z m 0,-0.4099947 0.459994,0.4599941 0,0.2699965 -0.459994,-0.4499942 z m 0,-0.4199946 0.459994,0.4599941 0,0.2799964 -0.459994,-0.4599941 z m 0,-0.4099947 0.459994,0.4599941 0,0.2699965 -0.459994,-0.4499942 z m 0,-0.4199946 0.459994,0.4599941 0,0.2799964 -0.459994,-0.4599941 z m 0.159998,-0.2599967 0.299996,0.309996 0,0.2699966 -0.439994,-0.4399944 z m 0.139998,-0.1399982 c 0.07,0.080004 0.119995,0.1800026 0.149998,0.2999962 L 90.062458,5.6701534 z M 89.652463,5.3801572 c 0.08021,6.303e-4 0.154787,0.01438 0.223747,0.04125 0.06896,0.02688 0.131037,0.063129 0.186248,0.1087485 l -0.309996,0.309996 -2.019974,0 -0.299996,-0.2999961 c 0.05562,-0.050411 0.119373,-0.089577 0.191247,-0.1174986 0.07187,-0.027911 0.148123,-0.042078 0.228748,-0.042499 l 1.799976,0 z m -2.439968,0.6499916 c 6.25e-4,-0.080619 0.01437,-0.1568681 0.04125,-0.228747 0.02688,-0.071869 0.06312,-0.1356184 0.108749,-0.1912476 l 0.299996,0.2999961 0,4.0899477 -0.299996,0.309996 c -0.04563,-0.06 -0.08187,-0.124998 -0.108749,-0.194998 -0.02688,-0.07 -0.04062,-0.1449975 -0.04125,-0.2249969 l 0,-3.8599503 z m 1.849976,4.0399482 0.279996,0 0.439995,0.449994 c -0.02042,4.17e-4 -0.04209,0.0021 -0.065,0.005 -0.02292,0.0029 -0.04458,0.0046 -0.065,0.005 l -0.129998,0 z m 0.76999,-0.05 0,-0.279996 0.409995,0.399995 c -0.03167,0.06167 -0.06834,0.118332 -0.109999,0.169998 z"
         style="font-variant:normal;font-stretch:normal;fill:#ffffff;stroke:#ffffff;font-family:Sullivan;-inkscape-font-specification:Sullivan"
         id="path3002" />
    </g>
    <flowRoot
       xml:space="preserve"
       id="flowRoot3031"
       style="font-size:144px;font-style:normal;font-variant:normal;font-weight:normal;font-stretch:normal;line-height:125%;letter-spacing:0px;word-spacing:0px;fill:#000000;fill-opacity:1;stroke:none;font-family:Times New Roman;-inkscape-font-specification:Times New Roman"><flowRegion
         id="flowRegion3033"><rect
           id="rect3035"
           width="3440"
           height="3200"
           x="411.42856"
           y="1382.1598"
           style="font-size:144px" /></flowRegion><flowPara
         id="flowPara3037" /></flowRoot>  </g>
</svg>
