<svg data-name="Layer 1" xmlns="http://www.w3.org/2000/svg" viewBox="0 0 18 11.31">
  <title>
    cardboard
  </title>
  <path d="M9.02 0h7.7a1.14 1.14 0 0 1 1.27 1.26v8.81a1.17 1.17 0 0 1-1.22 1.24h-4.19a1 1 0 0 1-1-.68q-.6-1.41-1.18-2.84a1.48 1.48 0 0 0-1.35-1.05 1.42 1.42 0 0 0-1.36 1l-1.1 2.67a1.16 1.16 0 0 1-1.34.92h-4A1.14 1.14 0 0 1 0 10.14V1.22A1.14 1.14 0 0 1 1.24 0h7.78zM4.9 7.64a2 2 0 0 0 2-1.94 2 2 0 0 0-1.93-2 2.07 2.07 0 0 0-2.08 2A2 2 0 0 0 4.9 7.64zm8.18 0a2 2 0 0 0 2-2 2 2 0 0 0-4 .05 2 2 0 0 0 2 1.95z"/>
</svg>