<svg id="Layer_1" data-name="Layer 1" xmlns="http://www.w3.org/2000/svg" viewBox="0 0 588.2 596.7"><defs><style>.cls-1{fill:#878787;}.cls-2,.cls-3{fill:none;stroke:#878787;stroke-miterlimit:10;}.cls-2{stroke-width:25px;}.cls-3{stroke-width:30px;}</style></defs><title>Ray Cast Icon</title><path class="cls-1" d="M465.7,325a7.6,7.6,0,0,1,4,2.8l94,247.2H36.3l94-247.2a7.6,7.6,0,0,1,4-2.8H465.7m.2-25H134.1c-11,0-23.2,8.4-27.1,18.7L7.1,581.3C3.2,591.6,9,600,20,600H580c11,0,16.8-8.4,12.9-18.7L493,318.7c-3.9-10.3-16.1-18.7-27.1-18.7Z" transform="translate(-5.9 -3.3)"/><ellipse class="cls-2" cx="294.1" cy="427.9" rx="40.4" ry="26.9"/><line class="cls-3" x1="294.1" y1="401" x2="294.1" y2="51"/><path class="cls-1" d="M300,3.3c10.5,28.4,28.5,63.6,47.6,85.5L300,71.6,252.5,88.8C271.5,66.9,289.5,31.7,300,3.3Z" transform="translate(-5.9 -3.3)"/></svg>