<svg id="Layer_1" data-name="Layer 1" xmlns="http://www.w3.org/2000/svg" viewBox="0 0 583.8 541.4"><defs><style>.cls-1{fill:#c6c6c6;}.cls-2,.cls-3,.cls-4,.cls-5,.cls-6{fill:none;stroke:#706f6f;stroke-miterlimit:10;stroke-width:16px;}.cls-3{stroke-dasharray:29.12 29.12;}.cls-4{stroke-dasharray:33.76 33.76;}.cls-5{stroke-dasharray:30.64 30.64;}.cls-6{stroke-dasharray:31.6 31.6;}.cls-7{font-size:200px;}.cls-7,.cls-8,.cls-9{fill:#706f6f;}.cls-7,.cls-8{font-family:Roboto-Medium, Roboto Medium;font-weight:500;letter-spacing:0.1em;}.cls-8{font-size:100px;}</style></defs><title>Custom Surface Area Measurement</title><polygon class="cls-1" points="71 20 512.4 172 563.8 433.3 20 521.4 71 20"/><polyline class="cls-2" points="69.5 34.9 71 20 85.2 24.9"/><line class="cls-3" x1="112.7" y1="34.4" x2="484.5" y2="162.4"/><polyline class="cls-2" points="498.2 167.2 512.4 172 515.3 186.8"/><line class="cls-4" x1="521.8" y1="219.9" x2="557.7" y2="402.1"/><polyline class="cls-2" points="560.9 418.6 563.8 433.3 549 435.7"/><line class="cls-5" x1="518.8" y1="440.6" x2="49.9" y2="516.6"/><polyline class="cls-2" points="34.8 519 20 521.4 21.5 506.5"/><line class="cls-6" x1="24.7" y1="475.1" x2="67.9" y2="50.6"/><text class="cls-7" transform="translate(170.5 364)">m</text><text class="cls-8" transform="translate(338.3 255.4)">2</text><circle class="cls-9" cx="71" cy="20" r="20"/><circle class="cls-9" cx="563.8" cy="433.3" r="20"/><circle class="cls-9" cx="20" cy="521.4" r="20"/><circle class="cls-9" cx="512.4" cy="172" r="20"/></svg>