<svg id="Layer_1" data-name="Layer 1" xmlns="http://www.w3.org/2000/svg" viewBox="0 0 191.7 500">
    <defs>
        <style>
            .cls-1{fill:#d0d2d3;}.cls-2{fill:#808184;}.cls-3{fill:none;stroke:#fff;stroke-linecap:round;stroke-miterlimit:10;stroke-width:30px;}
        </style>
    </defs>
    <title>Point Icon</title>
    <circle class="cls-1" cx="300" cy="145.8" r="90.8" transform="translate(-237.1 75.9) rotate(-22.5)"/>
    <path class="cls-2"
          d="M300,60a85.9,85.9,0,1,1-85.8,85.8A85.9,85.9,0,0,1,300,60m0-10a95.9,95.9,0,1,0,95.8,95.8A95.8,95.8,0,0,0,300,50Z"
          transform="translate(-204.2 -50)"/>
    <path class="cls-3" d="M308.6,96.1a41.7,41.7,0,0,1,41.7,41.7" transform="translate(-204.2 -50)"/>
    <polygon class="cls-2" points="95.8 500 83.3 446.2 83.3 189.6 108.3 189.6 108.3 446.2 95.8 500"/>
</svg>
