<svg id="Layer_1" data-name="Layer 1" xmlns="http://www.w3.org/2000/svg" viewBox="0 0 550 550"><defs><style>.cls-1{fill:#c6c6c6;}.cls-2{fill:#878787;}.cls-3{fill:none;stroke:#878787;stroke-miterlimit:10;stroke-width:24px;}</style></defs><title>Point to Point</title><rect class="cls-1" x="10" y="10" width="80" height="80" rx="30"/><path class="cls-2" d="M85,45a20.1,20.1,0,0,1,20,20V85a20.1,20.1,0,0,1-20,20H65A20.1,20.1,0,0,1,45,85V65A20.1,20.1,0,0,1,65,45H85m0-20H65A40.1,40.1,0,0,0,25,65V85a40.1,40.1,0,0,0,40,40H85a40.1,40.1,0,0,0,40-40V65A40.1,40.1,0,0,0,85,25Z" transform="translate(-25 -25)"/><rect class="cls-1" x="460" y="460" width="80" height="80" rx="30"/><path class="cls-2" d="M535,495a20.1,20.1,0,0,1,20,20v20a20.1,20.1,0,0,1-20,20H515a20.1,20.1,0,0,1-20-20V515a20.1,20.1,0,0,1,20-20h20m0-20H515a40.1,40.1,0,0,0-40,40v20a40.1,40.1,0,0,0,40,40h20a40.1,40.1,0,0,0,40-40V515a40.1,40.1,0,0,0-40-40Z" transform="translate(-25 -25)"/><path class="cls-2" d="M118.9,118.9c15.1,33,29.8,78.2,32.2,112.9l25.7-55,55-25.7C197.1,148.7,151.9,134.1,118.9,118.9Z" transform="translate(-25 -25)"/><path class="cls-2" d="M478.9,478.9c-15.2-33-29.8-78.2-32.2-112.9L421,421l-55,25.7C400.7,449.1,445.9,463.7,478.9,478.9Z" transform="translate(-25 -25)"/><line class="cls-3" x1="125.7" y1="125.7" x2="422.1" y2="422.1"/></svg>